<svg width="207" height="130" viewBox="0 0 207 130" fill="none" xmlns="http://www.w3.org/2000/svg">
<rect width="206.936" height="130" fill="white"/>
<rect width="206.936" height="130" fill="#0660CB" fill-opacity="0.8"/>
<path d="M35.8658 78.5111C33.2325 78.5081 31.2179 77.7557 29.8221 76.2541C28.4597 74.7526 27.7824 72.6351 27.7901 69.9018L27.8432 51.1019C27.8509 48.3686 28.5402 46.2527 29.9111 44.7543C31.3154 43.2559 33.3342 42.5082 35.9675 42.5112C38.6008 42.5143 40.5987 43.2665 41.9611 44.7681C43.3569 46.2697 44.0509 48.3872 44.0432 51.1205L44.0327 54.8205L38.8327 54.8145L38.8442 50.7645C38.8503 48.5979 37.9367 47.5135 36.1034 47.5114C34.27 47.5093 33.3503 48.5915 33.3442 50.7582L33.289 70.3081C33.2829 72.4415 34.1966 73.5092 36.0299 73.5113C37.8632 73.5134 38.7829 72.4478 38.789 70.3145L38.8041 64.9645L44.0041 64.9705L43.9901 69.9204C43.9824 72.6538 43.2764 74.7696 41.8721 76.268C40.5012 77.7664 38.4991 78.5141 35.8658 78.5111ZM51.6067 43.0292L59.0567 43.0378L64.6578 78.0442L59.1578 78.0379L58.1774 71.0867L58.1772 71.1867L51.9272 71.1796L50.9078 78.0284L45.8078 78.0225L51.6067 43.0292ZM57.5406 66.436L55.1395 49.1333L55.0395 49.1331L52.5906 66.4303L57.5406 66.436ZM67.425 43.0474L75.575 43.0568C78.4084 43.06 80.4732 43.7291 81.7694 45.0639C83.0657 46.3654 83.71 48.3828 83.7023 51.1161L83.6962 53.2661C83.686 56.8994 82.4795 59.198 80.0767 60.1619L80.0764 60.2619C81.4086 60.6634 82.3397 61.4812 82.8695 62.7151C83.4327 63.9491 83.7114 65.5994 83.7055 67.6661L83.6882 73.8161C83.6853 74.8161 83.7164 75.6328 83.7812 76.2662C83.8462 76.8662 84.0112 77.4664 84.2762 78.0667L78.6762 78.0603C78.4778 77.4934 78.3459 76.9599 78.2807 76.4598C78.2154 75.9598 78.1846 75.0597 78.1883 73.7597L78.2064 67.3598C78.2109 65.7598 77.9474 64.6428 77.4159 64.0089C76.9176 63.375 76.0352 63.0573 74.7685 63.0558L72.8685 63.0536L72.8262 78.0536L67.3262 78.0473L67.425 43.0474ZM74.8827 58.056C75.9827 58.0572 76.8001 57.7748 77.3351 57.2088C77.9033 56.6428 78.1893 55.6931 78.1931 54.3598L78.2007 51.6598C78.2043 50.3931 77.9736 49.4762 77.5085 48.909C77.0768 48.3418 76.3776 48.0577 75.4109 48.0566L72.9109 48.0537L72.8827 58.0537L74.8827 58.056ZM87.591 43.0706L95.741 43.0799C98.5744 43.0832 100.639 43.7522 101.935 45.0871C103.232 46.3885 103.876 48.4059 103.868 51.1393L103.862 53.2893C103.852 56.9226 102.645 59.2212 100.243 60.1851L100.242 60.2851C101.575 60.6866 102.506 61.5044 103.036 62.7383C103.599 63.9723 103.877 65.6226 103.872 67.6893L103.854 73.8392C103.851 74.8392 103.882 75.6559 103.947 76.2893C104.012 76.8894 104.177 77.4896 104.442 78.0899L98.8422 78.0835C98.6438 77.5166 98.5119 76.9831 98.4467 76.483C98.3814 75.983 98.3506 75.0829 98.3543 73.7829L98.3724 67.3829C98.3769 65.783 98.1134 64.666 97.5819 64.032C97.0836 63.3981 96.2012 63.0805 94.9345 63.079L93.0345 63.0768L92.9922 78.0768L87.4922 78.0704L87.591 43.0706ZM95.0487 58.0791C96.1487 58.0804 96.9661 57.798 97.5011 57.2319C98.0693 56.6659 98.3553 55.7163 98.3591 54.3829L98.3667 51.683C98.3703 50.4163 98.1396 49.4994 97.6745 48.9322C97.2428 48.365 96.5436 48.0809 95.5769 48.0797L93.0769 48.0769L93.0487 58.0768L95.0487 58.0791ZM107.757 43.0937L113.257 43.1001L113.158 78.0999L107.658 78.0936L107.757 43.0937ZM117.376 43.1048L124.276 43.1127L129.567 64.0688L129.667 64.0689L129.726 43.119L134.626 43.1246L134.527 78.1245L128.877 78.118L122.349 52.5605L122.249 52.5604L122.177 78.1103L117.277 78.1047L117.376 43.1048ZM138.714 43.1293L144.214 43.1357L144.174 57.3856L150.074 57.3924L150.114 43.1424L155.614 43.1488L155.515 78.1486L150.015 78.1423L150.06 62.3924L144.16 62.3856L144.115 78.1355L138.615 78.1292L138.714 43.1293ZM167.56 78.6625C164.86 78.6594 162.795 77.8903 161.366 76.3554C159.937 74.8204 159.227 72.6529 159.235 69.8529L159.287 51.453C159.295 48.653 160.017 46.4872 161.455 44.9555C162.893 43.4238 164.962 42.6595 167.662 42.6626C170.362 42.6657 172.426 43.4348 173.855 44.9697C175.284 46.5047 175.995 48.6722 175.987 51.4722L175.935 69.8721C175.927 72.6721 175.204 74.8379 173.766 76.3696C172.329 77.9013 170.26 78.6656 167.56 78.6625ZM167.574 73.6625C169.474 73.6647 170.427 72.5158 170.434 70.2158L170.488 51.1159C170.494 48.8159 169.547 47.6648 167.647 47.6626C165.747 47.6604 164.794 48.8093 164.788 51.1093L164.734 70.2092C164.727 72.5092 165.674 73.6603 167.574 73.6625Z" fill="black" fill-opacity="0.6"/>
</svg>
