<svg width="207" height="130" viewBox="0 0 207 130" fill="none" xmlns="http://www.w3.org/2000/svg">
<rect width="207" height="130" fill="white"/>
<rect width="207" height="130" fill="#0660CB" fill-opacity="0.8"/>
<path d="M27.156 43.0037L41.706 43.0299L41.697 48.0299L32.647 48.0136L32.6294 57.7636L39.7294 57.7764L39.7204 62.7764L32.6204 62.7636L32.5929 78.0135L27.0929 78.0036L27.156 43.0037ZM46.9821 43.0394L54.4321 43.0528L60.069 78.063L54.5691 78.0531L53.5816 71.1013L53.5814 71.2013L47.3314 71.1901L46.3191 78.0383L41.2191 78.0291L46.9821 43.0394ZM52.94 66.4502L50.5211 49.1458L50.4211 49.1456L47.99 66.4413L52.94 66.4502ZM59.9345 43.0627L65.4845 43.0727L69.0355 70.2292L69.1355 70.2294L72.7844 43.0859L77.8344 43.095L72.4714 78.0854L65.1714 78.0722L59.9345 43.0627ZM88.2646 78.6139C85.5646 78.609 83.4993 77.8386 82.0687 76.3027C80.6382 74.7668 79.9254 72.5988 79.9305 69.7988L79.9636 51.3989C79.9687 48.5989 80.6892 46.4335 82.1253 44.9027C83.5614 43.372 85.6295 42.609 88.3295 42.6139C91.0295 42.6188 93.0947 43.3892 94.5253 44.9251C95.9559 46.461 96.6686 48.629 96.6636 51.4289L96.6304 69.8289C96.6254 72.6289 95.9048 74.7943 94.4687 76.325C93.0326 77.8558 90.9646 78.6187 88.2646 78.6139ZM88.2736 73.6139C90.1736 73.6173 91.1257 72.469 91.1298 70.169L91.1642 51.069C91.1684 48.769 90.2204 47.6173 88.3204 47.6139C86.4205 47.6105 85.4684 48.7588 85.4642 51.0588L85.4298 70.1587C85.4257 72.4587 86.3736 73.6104 88.2736 73.6139ZM100.398 43.1357L108.548 43.1504C111.381 43.1555 113.447 43.8258 114.744 45.1615C116.042 46.4639 116.688 48.4817 116.684 51.215L116.68 53.365C116.673 56.9984 115.469 59.2962 113.067 60.2585L113.067 60.3585C114.4 60.7609 115.332 61.5793 115.863 62.8136C116.427 64.0479 116.707 65.6984 116.704 67.7651L116.693 73.9151C116.691 74.9151 116.723 75.7318 116.788 76.3653C116.854 76.9654 117.019 77.5657 117.285 78.1662L111.685 78.1561C111.486 77.589 111.354 77.0555 111.288 76.5553C111.222 76.0552 111.19 75.1552 111.193 73.8552L111.204 67.4552C111.207 65.8552 110.942 64.738 110.41 64.1037C109.911 63.4695 109.029 63.1513 107.762 63.149L105.862 63.1455L105.835 78.1455L100.335 78.1356L100.398 43.1357ZM107.871 58.1492C108.971 58.1511 109.788 57.8693 110.323 57.3036C110.89 56.7379 111.175 55.7884 111.178 54.4551L111.183 51.7551C111.185 50.4884 110.953 49.5714 110.488 49.0039C110.055 48.4364 109.356 48.1518 108.389 48.1501L105.889 48.1456L105.871 58.1456L107.871 58.1492ZM120.564 43.172L126.064 43.1819L126.001 78.1819L120.501 78.172L120.564 43.172ZM134.474 48.1971L128.724 48.1867L128.733 43.1867L145.733 43.2174L145.724 48.2174L139.974 48.207L139.92 78.2069L134.42 78.197L134.474 48.1971ZM156.087 78.7361C153.387 78.7312 151.321 77.9608 149.891 76.4249C148.46 74.889 147.748 72.721 147.753 69.921L147.786 51.5211C147.791 48.7211 148.511 46.5557 149.947 45.025C151.384 43.4942 153.452 42.7313 156.152 42.7361C158.852 42.741 160.917 43.5114 162.347 45.0473C163.778 46.5832 164.491 48.7512 164.486 51.5512L164.453 69.9511C164.448 72.7511 163.727 74.9165 162.291 76.4473C160.855 77.978 158.787 78.7409 156.087 78.7361ZM156.096 73.7361C157.996 73.7395 158.948 72.5912 158.952 70.2912L158.986 51.1913C158.991 48.8913 158.043 47.7396 156.143 47.7361C154.243 47.7327 153.291 48.881 153.286 51.181L153.252 70.281C153.248 72.581 154.196 73.7327 156.096 73.7361ZM175.306 78.7707C172.64 78.7659 170.624 78.0123 169.26 76.5098C167.896 74.974 167.217 72.7895 167.222 69.9561L167.226 67.9561L172.426 67.9655L172.421 70.3655C172.417 72.6322 173.365 73.7672 175.265 73.7706C176.199 73.7723 176.899 73.5069 177.367 72.9744C177.868 72.4087 178.119 71.5091 178.122 70.2758C178.124 68.8091 177.793 67.5252 177.128 66.424C176.464 65.2894 175.233 63.9372 173.436 62.3673C171.173 60.3632 169.593 58.5604 168.696 56.9588C167.798 55.3238 167.352 53.4897 167.355 51.4563C167.36 48.6897 168.064 46.5576 169.467 45.0601C170.87 43.5293 172.904 42.7663 175.571 42.7711C178.204 42.7759 180.186 43.5461 181.517 45.0819C182.881 46.5843 183.56 48.7522 183.555 51.5855L183.553 53.0355L178.353 53.0262L178.356 51.2262C178.358 50.0262 178.126 49.1591 177.661 48.6249C177.195 48.0574 176.512 47.7728 175.612 47.7712C173.779 47.7679 172.86 48.8829 172.856 51.1163C172.854 52.3829 173.185 53.5669 173.85 54.668C174.548 55.7693 175.795 57.1049 177.592 58.6748C179.889 60.6789 181.469 62.4985 182.333 64.1334C183.196 65.7682 183.626 67.6857 183.622 69.8857C183.617 72.7523 182.896 74.9511 181.46 76.4818C180.058 78.0126 178.006 78.7756 175.306 78.7707Z" fill="black" fill-opacity="0.6"/>
</svg>
