<svg width="207" height="130" viewBox="0 0 207 130" fill="none" xmlns="http://www.w3.org/2000/svg">
<rect width="207" height="130" fill="white"/>
<rect width="207" height="130" fill="#0660CB" fill-opacity="0.8"/>
<path d="M60.1195 43.0037L65.6195 43.0136L65.5654 73.0135L74.6154 73.0299L74.6064 78.0298L60.0564 78.0036L60.1195 43.0037ZM84.9977 78.5486C82.2977 78.5437 80.2324 77.7733 78.8018 76.2374C77.3713 74.7015 76.6585 72.5335 76.6635 69.7335L76.6967 51.3336C76.7017 48.5336 77.4223 46.3682 78.8584 44.8374C80.2945 43.3067 82.3626 42.5438 85.0625 42.5486C87.7625 42.5535 89.8278 43.3239 91.2584 44.8598C92.689 46.3957 93.4017 48.5637 93.3967 51.3637L93.3635 69.7636C93.3585 72.5636 92.6379 74.729 91.2018 76.2597C89.7657 77.7905 87.6977 78.5534 84.9977 78.5486ZM85.0067 73.5486C86.9067 73.552 87.8588 72.4037 87.8629 70.1037L87.8973 51.0037C87.9015 48.7038 86.9535 47.552 85.0535 47.5486C83.1535 47.5452 82.2015 48.6935 82.1973 50.9935L82.1629 70.0934C82.1588 72.3934 83.1067 73.5452 85.0067 73.5486ZM104.867 78.5844C102.201 78.5796 100.169 77.8259 98.7712 76.3234C97.374 74.7875 96.6779 72.6029 96.683 69.7696L96.7162 51.3696C96.7213 48.5363 97.4252 46.3709 98.8279 44.8734C100.231 43.3426 102.265 42.5796 104.932 42.5844C107.599 42.5892 109.631 43.3596 111.028 44.8954C112.425 46.3979 113.121 48.5659 113.116 51.3992L113.111 54.3992L107.911 54.3898L107.917 51.0398C107.921 48.7398 106.973 47.5881 105.073 47.5847C103.173 47.5813 102.221 48.7296 102.217 51.0296L102.182 70.1795C102.178 72.4462 103.126 73.5812 105.026 73.5847C106.926 73.5881 107.878 72.4565 107.882 70.1898L107.895 63.3398L105.145 63.3348L105.154 58.3349L113.104 58.3492L113.083 69.7992C113.078 72.6325 112.374 74.8146 110.971 76.3454C109.569 77.8428 107.534 78.5892 104.867 78.5844ZM116.662 43.1056L122.162 43.1155L122.099 78.1154L116.599 78.1055L116.662 43.1056ZM126.282 43.1229L133.181 43.1353L138.494 64.0949L138.594 64.0951L138.631 43.1452L143.531 43.154L143.468 78.1539L137.818 78.1438L131.264 52.5819L131.164 52.5817L131.118 78.1317L126.218 78.1229L126.282 43.1229Z" fill="black" fill-opacity="0.6"/>
</svg>
