<svg width="638" height="61" viewBox="0 0 638 61" fill="none" xmlns="http://www.w3.org/2000/svg">
<g filter="url(#filter0_d_22_10)">
<path d="M11.5 45V37.5H4V22.5H11.5V15H26.5V22.5H34V37.5H26.5V45H11.5ZM64 52.5V45H56.5V37.5H49V15H56.5V7.5H64V0H101.5V7.5H71.5V15H64V37.5H71.5V45H86.5V30H79V22.5H101.5V52.5H64ZM109 52.5V15H116.5V7.5H124V0H146.5V7.5H154V15H161.5V52.5H146.5V37.5H124V52.5H109ZM124 30H146.5V15H139V7.5H131.5V15H124V30ZM169 52.5V0H184V7.5H191.5V15H199V7.5H206.5V0H221.5V52.5H206.5V22.5H199V37.5H191.5V22.5H184V52.5H169ZM229 52.5V0H281.5V7.5H244V22.5H274V30H244V45H281.5V52.5H229ZM289 52.5V0H304V7.5H311.5V15H319V7.5H326.5V0H341.5V52.5H326.5V22.5H319V37.5H311.5V22.5H304V52.5H289ZM349 52.5V15H356.5V7.5H364V0H386.5V7.5H394V15H401.5V52.5H386.5V37.5H364V52.5H349ZM364 30H386.5V15H379V7.5H371.5V15H364V30ZM409 52.5V0H424V7.5H431.5V15H439V22.5H446.5V0H461.5V52.5H446.5V37.5H439V30H431.5V22.5H424V52.5H409ZM476.5 52.5V45H491.5V7.5H476.5V0H521.5V7.5H506.5V45H521.5V52.5H476.5ZM529 52.5V15H536.5V7.5H544V0H566.5V7.5H574V15H581.5V52.5H566.5V37.5H544V52.5H529ZM544 30H566.5V15H559V7.5H551.5V15H544V30ZM611.5 45V37.5H604V22.5H611.5V15H626.5V22.5H634V37.5H626.5V45H611.5Z" fill="white"/>
</g>
<defs>
<filter id="filter0_d_22_10" x="0" y="0" width="638" height="60.5" filterUnits="userSpaceOnUse" color-interpolation-filters="sRGB">
<feFlood flood-opacity="0" result="BackgroundImageFix"/>
<feColorMatrix in="SourceAlpha" type="matrix" values="0 0 0 0 0 0 0 0 0 0 0 0 0 0 0 0 0 0 127 0" result="hardAlpha"/>
<feOffset dy="4"/>
<feGaussianBlur stdDeviation="2"/>
<feComposite in2="hardAlpha" operator="out"/>
<feColorMatrix type="matrix" values="0 0 0 0 0 0 0 0 0 0 0 0 0 0 0 0 0 0 0.25 0"/>
<feBlend mode="normal" in2="BackgroundImageFix" result="effect1_dropShadow_22_10"/>
<feBlend mode="normal" in="SourceGraphic" in2="effect1_dropShadow_22_10" result="shape"/>
</filter>
</defs>
</svg>
