<svg width="483" height="348" viewBox="0 0 483 348" fill="none" xmlns="http://www.w3.org/2000/svg">
<rect x="0.111084" y="0.555542" width="482.222" height="263.667" fill="#47494C"/>
<g filter="url(#filter0_d_111_9)">
<path d="M87.4424 282.667H91.5824L94.7924 295.237H94.8524V282.667H97.7924V303.667H94.4024L90.4424 288.337H90.3824V303.667H87.4424V282.667ZM105.015 303.967C103.395 303.967 102.155 303.507 101.295 302.587C100.435 301.667 100.005 300.367 100.005 298.687V287.647C100.005 285.967 100.435 284.667 101.295 283.747C102.155 282.827 103.395 282.367 105.015 282.367C106.635 282.367 107.875 282.827 108.735 283.747C109.595 284.667 110.025 285.967 110.025 287.647V298.687C110.025 300.367 109.595 301.667 108.735 302.587C107.875 303.507 106.635 303.967 105.015 303.967ZM105.015 300.967C106.155 300.967 106.725 300.277 106.725 298.897V287.437C106.725 286.057 106.155 285.367 105.015 285.367C103.875 285.367 103.305 286.057 103.305 287.437V298.897C103.305 300.277 103.875 300.967 105.015 300.967ZM116.547 303.967C114.947 303.967 113.737 303.517 112.917 302.617C112.097 301.697 111.687 300.387 111.687 298.687V297.487H114.807V298.927C114.807 300.287 115.377 300.967 116.517 300.967C117.077 300.967 117.497 300.807 117.777 300.487C118.077 300.147 118.227 299.607 118.227 298.867C118.227 297.987 118.027 297.217 117.627 296.557C117.227 295.877 116.487 295.067 115.407 294.127C114.047 292.927 113.097 291.847 112.557 290.887C112.017 289.907 111.747 288.807 111.747 287.587C111.747 285.927 112.167 284.647 113.007 283.747C113.847 282.827 115.067 282.367 116.667 282.367C118.247 282.367 119.437 282.827 120.237 283.747C121.057 284.647 121.467 285.947 121.467 287.647V288.517H118.347V287.437C118.347 286.717 118.207 286.197 117.927 285.877C117.647 285.537 117.237 285.367 116.697 285.367C115.597 285.367 115.047 286.037 115.047 287.377C115.047 288.137 115.247 288.847 115.647 289.507C116.067 290.167 116.817 290.967 117.897 291.907C119.277 293.107 120.227 294.197 120.747 295.177C121.267 296.157 121.527 297.307 121.527 298.627C121.527 300.347 121.097 301.667 120.237 302.587C119.397 303.507 118.167 303.967 116.547 303.967ZM132.514 303.967C130.914 303.967 129.704 303.517 128.884 302.617C128.064 301.697 127.654 300.387 127.654 298.687V297.487H130.774V298.927C130.774 300.287 131.344 300.967 132.484 300.967C133.044 300.967 133.464 300.807 133.744 300.487C134.044 300.147 134.194 299.607 134.194 298.867C134.194 297.987 133.994 297.217 133.594 296.557C133.194 295.877 132.454 295.067 131.374 294.127C130.014 292.927 129.064 291.847 128.524 290.887C127.984 289.907 127.714 288.807 127.714 287.587C127.714 285.927 128.134 284.647 128.974 283.747C129.814 282.827 131.034 282.367 132.634 282.367C134.214 282.367 135.404 282.827 136.204 283.747C137.024 284.647 137.434 285.947 137.434 287.647V288.517H134.314V287.437C134.314 286.717 134.174 286.197 133.894 285.877C133.614 285.537 133.204 285.367 132.664 285.367C131.564 285.367 131.014 286.037 131.014 287.377C131.014 288.137 131.214 288.847 131.614 289.507C132.034 290.167 132.784 290.967 133.864 291.907C135.244 293.107 136.194 294.197 136.714 295.177C137.234 296.157 137.494 297.307 137.494 298.627C137.494 300.347 137.064 301.667 136.204 302.587C135.364 303.507 134.134 303.967 132.514 303.967ZM139.386 282.667H142.686V303.667H139.386V282.667ZM149.837 303.967C148.237 303.967 147.017 303.517 146.177 302.617C145.337 301.697 144.917 300.387 144.917 298.687V287.647C144.917 285.947 145.337 284.647 146.177 283.747C147.017 282.827 148.237 282.367 149.837 282.367C151.437 282.367 152.657 282.827 153.497 283.747C154.337 284.647 154.757 285.947 154.757 287.647V289.447H151.637V287.437C151.637 286.057 151.067 285.367 149.927 285.367C148.787 285.367 148.217 286.057 148.217 287.437V298.927C148.217 300.287 148.787 300.967 149.927 300.967C151.067 300.967 151.637 300.287 151.637 298.927V294.817H149.987V291.817H154.757V298.687C154.757 300.387 154.337 301.697 153.497 302.617C152.657 303.517 151.437 303.967 149.837 303.967ZM159.426 282.667H163.896L167.316 303.667H164.016L163.416 299.497V299.557H159.666L159.066 303.667H156.006L159.426 282.667ZM163.026 296.707L161.556 286.327H161.496L160.056 296.707H163.026ZM173.722 282.667H177.862L181.072 295.237H181.132V282.667H184.072V303.667H180.682L176.722 288.337H176.662V303.667H173.722V282.667ZM189.074 282.667H193.544L196.964 303.667H193.664L193.064 299.497V299.557H189.314L188.714 303.667H185.654L189.074 282.667ZM192.674 296.707L191.204 286.327H191.144L189.704 296.707H192.674ZM202.768 303.967C201.168 303.967 199.958 303.517 199.138 302.617C198.318 301.697 197.908 300.387 197.908 298.687V297.487H201.028V298.927C201.028 300.287 201.598 300.967 202.738 300.967C203.298 300.967 203.718 300.807 203.998 300.487C204.298 300.147 204.448 299.607 204.448 298.867C204.448 297.987 204.248 297.217 203.848 296.557C203.448 295.877 202.708 295.067 201.628 294.127C200.268 292.927 199.318 291.847 198.778 290.887C198.238 289.907 197.968 288.807 197.968 287.587C197.968 285.927 198.388 284.647 199.228 283.747C200.068 282.827 201.288 282.367 202.888 282.367C204.468 282.367 205.658 282.827 206.458 283.747C207.278 284.647 207.688 285.947 207.688 287.647V288.517H204.568V287.437C204.568 286.717 204.428 286.197 204.148 285.877C203.868 285.537 203.458 285.367 202.918 285.367C201.818 285.367 201.268 286.037 201.268 287.377C201.268 288.137 201.468 288.847 201.868 289.507C202.288 290.167 203.038 290.967 204.118 291.907C205.498 293.107 206.448 294.197 206.968 295.177C207.488 296.157 207.748 297.307 207.748 298.627C207.748 300.347 207.318 301.667 206.458 302.587C205.618 303.507 204.388 303.967 202.768 303.967ZM214.444 282.667H219.334C221.034 282.667 222.274 283.067 223.054 283.867C223.834 284.647 224.224 285.857 224.224 287.497V288.787C224.224 290.967 223.504 292.347 222.064 292.927V292.987C222.864 293.227 223.424 293.717 223.744 294.457C224.084 295.197 224.254 296.187 224.254 297.427V301.117C224.254 301.717 224.274 302.207 224.314 302.587C224.354 302.947 224.454 303.307 224.614 303.667H221.254C221.134 303.327 221.054 303.007 221.014 302.707C220.974 302.407 220.954 301.867 220.954 301.087V297.247C220.954 296.287 220.794 295.617 220.474 295.237C220.174 294.857 219.644 294.667 218.884 294.667H217.744V303.667H214.444V282.667ZM218.944 291.667C219.604 291.667 220.094 291.497 220.414 291.157C220.754 290.817 220.924 290.247 220.924 289.447V287.827C220.924 287.067 220.784 286.517 220.504 286.177C220.244 285.837 219.824 285.667 219.244 285.667H217.744V291.667H218.944ZM226.544 282.667H235.544V285.667H229.844V291.217H234.374V294.217H229.844V300.667H235.544V303.667H226.544V282.667ZM237.442 282.667H242.482C244.122 282.667 245.352 283.107 246.172 283.987C246.992 284.867 247.402 286.157 247.402 287.857V298.477C247.402 300.177 246.992 301.467 246.172 302.347C245.352 303.227 244.122 303.667 242.482 303.667H237.442V282.667ZM242.422 300.667C242.962 300.667 243.372 300.507 243.652 300.187C243.952 299.867 244.102 299.347 244.102 298.627V287.707C244.102 286.987 243.952 286.467 243.652 286.147C243.372 285.827 242.962 285.667 242.422 285.667H240.742V300.667H242.422ZM249.63 282.667H258.63V285.667H252.93V291.217H257.46V294.217H252.93V300.667H258.63V303.667H249.63V282.667ZM264.877 303.967C263.277 303.967 262.067 303.517 261.247 302.617C260.427 301.697 260.017 300.387 260.017 298.687V297.487H263.137V298.927C263.137 300.287 263.707 300.967 264.847 300.967C265.407 300.967 265.827 300.807 266.107 300.487C266.407 300.147 266.557 299.607 266.557 298.867C266.557 297.987 266.357 297.217 265.957 296.557C265.557 295.877 264.817 295.067 263.737 294.127C262.377 292.927 261.427 291.847 260.887 290.887C260.347 289.907 260.077 288.807 260.077 287.587C260.077 285.927 260.497 284.647 261.337 283.747C262.177 282.827 263.397 282.367 264.997 282.367C266.577 282.367 267.767 282.827 268.567 283.747C269.387 284.647 269.797 285.947 269.797 287.647V288.517H266.677V287.437C266.677 286.717 266.537 286.197 266.257 285.877C265.977 285.537 265.567 285.367 265.027 285.367C263.927 285.367 263.377 286.037 263.377 287.377C263.377 288.137 263.577 288.847 263.977 289.507C264.397 290.167 265.147 290.967 266.227 291.907C267.607 293.107 268.557 294.197 269.077 295.177C269.597 296.157 269.857 297.307 269.857 298.627C269.857 300.347 269.427 301.667 268.567 302.587C267.727 303.507 266.497 303.967 264.877 303.967ZM280.844 303.967C279.244 303.967 278.034 303.517 277.214 302.617C276.394 301.697 275.984 300.387 275.984 298.687V297.487H279.104V298.927C279.104 300.287 279.674 300.967 280.814 300.967C281.374 300.967 281.794 300.807 282.074 300.487C282.374 300.147 282.524 299.607 282.524 298.867C282.524 297.987 282.324 297.217 281.924 296.557C281.524 295.877 280.784 295.067 279.704 294.127C278.344 292.927 277.394 291.847 276.854 290.887C276.314 289.907 276.044 288.807 276.044 287.587C276.044 285.927 276.464 284.647 277.304 283.747C278.144 282.827 279.364 282.367 280.964 282.367C282.544 282.367 283.734 282.827 284.534 283.747C285.354 284.647 285.764 285.947 285.764 287.647V288.517H282.644V287.437C282.644 286.717 282.504 286.197 282.224 285.877C281.944 285.537 281.534 285.367 280.994 285.367C279.894 285.367 279.344 286.037 279.344 287.377C279.344 288.137 279.544 288.847 279.944 289.507C280.364 290.167 281.114 290.967 282.194 291.907C283.574 293.107 284.524 294.197 285.044 295.177C285.564 296.157 285.824 297.307 285.824 298.627C285.824 300.347 285.394 301.667 284.534 302.587C283.694 303.507 282.464 303.967 280.844 303.967ZM292.486 303.967C290.866 303.967 289.626 303.507 288.766 302.587C287.906 301.667 287.476 300.367 287.476 298.687V287.647C287.476 285.967 287.906 284.667 288.766 283.747C289.626 282.827 290.866 282.367 292.486 282.367C294.106 282.367 295.346 282.827 296.206 283.747C297.066 284.667 297.496 285.967 297.496 287.647V298.687C297.496 300.367 297.066 301.667 296.206 302.587C295.346 303.507 294.106 303.967 292.486 303.967ZM292.486 300.967C293.626 300.967 294.196 300.277 294.196 298.897V287.437C294.196 286.057 293.626 285.367 292.486 285.367C291.346 285.367 290.776 286.057 290.776 287.437V298.897C290.776 300.277 291.346 300.967 292.486 300.967ZM304.378 303.967C302.798 303.967 301.588 303.517 300.748 302.617C299.928 301.717 299.518 300.447 299.518 298.807V287.527C299.518 285.887 299.928 284.617 300.748 283.717C301.588 282.817 302.798 282.367 304.378 282.367C305.958 282.367 307.158 282.817 307.978 283.717C308.818 284.617 309.238 285.887 309.238 287.527V289.747H306.118V287.317C306.118 286.017 305.568 285.367 304.468 285.367C303.368 285.367 302.818 286.017 302.818 287.317V299.047C302.818 300.327 303.368 300.967 304.468 300.967C305.568 300.967 306.118 300.327 306.118 299.047V295.837H309.238V298.807C309.238 300.447 308.818 301.717 307.978 302.617C307.158 303.517 305.958 303.967 304.378 303.967ZM311.212 282.667H314.512V303.667H311.212V282.667ZM319.533 282.667H324.003L327.423 303.667H324.123L323.523 299.497V299.557H319.773L319.173 303.667H316.113L319.533 282.667ZM323.133 296.707L321.663 286.327H321.603L320.163 296.707H323.133ZM329.024 282.667H332.324V303.667H329.024V282.667ZM339.086 303.967C337.486 303.967 336.276 303.517 335.456 302.617C334.636 301.697 334.226 300.387 334.226 298.687V297.487H337.346V298.927C337.346 300.287 337.916 300.967 339.056 300.967C339.616 300.967 340.036 300.807 340.316 300.487C340.616 300.147 340.766 299.607 340.766 298.867C340.766 297.987 340.566 297.217 340.166 296.557C339.766 295.877 339.026 295.067 337.946 294.127C336.586 292.927 335.636 291.847 335.096 290.887C334.556 289.907 334.286 288.807 334.286 287.587C334.286 285.927 334.706 284.647 335.546 283.747C336.386 282.827 337.606 282.367 339.206 282.367C340.786 282.367 341.976 282.827 342.776 283.747C343.596 284.647 344.006 285.947 344.006 287.647V288.517H340.886V287.437C340.886 286.717 340.746 286.197 340.466 285.877C340.186 285.537 339.776 285.367 339.236 285.367C338.136 285.367 337.586 286.037 337.586 287.377C337.586 288.137 337.786 288.847 338.186 289.507C338.606 290.167 339.356 290.967 340.436 291.907C341.816 293.107 342.766 294.197 343.286 295.177C343.806 296.157 344.066 297.307 344.066 298.627C344.066 300.347 343.636 301.667 342.776 302.587C341.936 303.507 340.706 303.967 339.086 303.967ZM350.763 282.667H355.623C357.263 282.667 358.493 283.107 359.313 283.987C360.133 284.867 360.543 286.157 360.543 287.857V289.927C360.543 291.627 360.133 292.917 359.313 293.797C358.493 294.677 357.263 295.117 355.623 295.117H354.063V303.667H350.763V282.667ZM355.623 292.117C356.163 292.117 356.563 291.967 356.823 291.667C357.103 291.367 357.243 290.857 357.243 290.137V287.647C357.243 286.927 357.103 286.417 356.823 286.117C356.563 285.817 356.163 285.667 355.623 285.667H354.063V292.117H355.623ZM363.83 282.667H368.3L371.72 303.667H368.42L367.82 299.497V299.557H364.07L363.47 303.667H360.41L363.83 282.667ZM367.43 296.707L365.96 286.327H365.9L364.46 296.707H367.43ZM373.321 282.667H378.211C379.911 282.667 381.151 283.067 381.931 283.867C382.711 284.647 383.101 285.857 383.101 287.497V288.787C383.101 290.967 382.381 292.347 380.941 292.927V292.987C381.741 293.227 382.301 293.717 382.621 294.457C382.961 295.197 383.131 296.187 383.131 297.427V301.117C383.131 301.717 383.151 302.207 383.191 302.587C383.231 302.947 383.331 303.307 383.491 303.667H380.131C380.011 303.327 379.931 303.007 379.891 302.707C379.851 302.407 379.831 301.867 379.831 301.087V297.247C379.831 296.287 379.671 295.617 379.351 295.237C379.051 294.857 378.521 294.667 377.761 294.667H376.621V303.667H373.321V282.667ZM377.821 291.667C378.481 291.667 378.971 291.497 379.291 291.157C379.631 290.817 379.801 290.247 379.801 289.447V287.827C379.801 287.067 379.661 286.517 379.381 286.177C379.121 285.837 378.701 285.667 378.121 285.667H376.621V291.667H377.821ZM387.971 282.667H392.441L395.861 303.667H392.561L391.961 299.497V299.557H388.211L387.611 303.667H384.551L387.971 282.667ZM391.571 296.707L390.101 286.327H390.041L388.601 296.707H391.571ZM113.371 318.667H117.841L121.261 339.667H117.961L117.361 335.497V335.557H113.611L113.011 339.667H109.951L113.371 318.667ZM116.971 332.707L115.501 322.327H115.441L114.001 332.707H116.971ZM127.454 339.967C125.874 339.967 124.664 339.517 123.824 338.617C123.004 337.717 122.594 336.447 122.594 334.807V323.527C122.594 321.887 123.004 320.617 123.824 319.717C124.664 318.817 125.874 318.367 127.454 318.367C129.034 318.367 130.234 318.817 131.054 319.717C131.894 320.617 132.314 321.887 132.314 323.527V325.747H129.194V323.317C129.194 322.017 128.644 321.367 127.544 321.367C126.444 321.367 125.894 322.017 125.894 323.317V335.047C125.894 336.327 126.444 336.967 127.544 336.967C128.644 336.967 129.194 336.327 129.194 335.047V331.837H132.314V334.807C132.314 336.447 131.894 337.717 131.054 338.617C130.234 339.517 129.034 339.967 127.454 339.967ZM139.117 339.967C137.497 339.967 136.257 339.507 135.397 338.587C134.537 337.667 134.107 336.367 134.107 334.687V323.647C134.107 321.967 134.537 320.667 135.397 319.747C136.257 318.827 137.497 318.367 139.117 318.367C140.737 318.367 141.977 318.827 142.837 319.747C143.697 320.667 144.127 321.967 144.127 323.647V334.687C144.127 336.367 143.697 337.667 142.837 338.587C141.977 339.507 140.737 339.967 139.117 339.967ZM139.117 336.967C140.257 336.967 140.827 336.277 140.827 334.897V323.437C140.827 322.057 140.257 321.367 139.117 321.367C137.977 321.367 137.407 322.057 137.407 323.437V334.897C137.407 336.277 137.977 336.967 139.117 336.967ZM146.358 318.667H151.068L153.168 333.697H153.228L155.328 318.667H160.038V339.667H156.918V323.767H156.858L154.458 339.667H151.698L149.298 323.767H149.238V339.667H146.358V318.667ZM162.501 318.667H167.361C169.001 318.667 170.231 319.107 171.051 319.987C171.871 320.867 172.281 322.157 172.281 323.857V325.927C172.281 327.627 171.871 328.917 171.051 329.797C170.231 330.677 169.001 331.117 167.361 331.117H165.801V339.667H162.501V318.667ZM167.361 328.117C167.901 328.117 168.301 327.967 168.561 327.667C168.841 327.367 168.981 326.857 168.981 326.137V323.647C168.981 322.927 168.841 322.417 168.561 322.117C168.301 321.817 167.901 321.667 167.361 321.667H165.801V328.117H167.361ZM175.569 318.667H180.039L183.459 339.667H180.159L179.559 335.497V335.557H175.809L175.209 339.667H172.149L175.569 318.667ZM179.169 332.707L177.699 322.327H177.639L176.199 332.707H179.169ZM185.06 318.667H189.2L192.41 331.237H192.47V318.667H195.41V339.667H192.02L188.06 324.337H188V339.667H185.06V318.667ZM197.862 318.667H201.162V327.217H204.702V318.667H208.002V339.667H204.702V330.217H201.162V339.667H197.862V318.667ZM213.01 318.667H217.48L220.9 339.667H217.6L217 335.497V335.557H213.25L212.65 339.667H209.59L213.01 318.667ZM216.61 332.707L215.14 322.327H215.08L213.64 332.707H216.61ZM222.501 318.667H227.391C229.091 318.667 230.331 319.067 231.111 319.867C231.891 320.647 232.281 321.857 232.281 323.497V324.787C232.281 326.967 231.561 328.347 230.121 328.927V328.987C230.921 329.227 231.481 329.717 231.801 330.457C232.141 331.197 232.311 332.187 232.311 333.427V337.117C232.311 337.717 232.331 338.207 232.371 338.587C232.411 338.947 232.511 339.307 232.671 339.667H229.311C229.191 339.327 229.111 339.007 229.071 338.707C229.031 338.407 229.011 337.867 229.011 337.087V333.247C229.011 332.287 228.851 331.617 228.531 331.237C228.231 330.857 227.701 330.667 226.941 330.667H225.801V339.667H222.501V318.667ZM227.001 327.667C227.661 327.667 228.151 327.497 228.471 327.157C228.811 326.817 228.981 326.247 228.981 325.447V323.827C228.981 323.067 228.841 322.517 228.561 322.177C228.301 321.837 227.881 321.667 227.301 321.667H225.801V327.667H227.001ZM241.955 318.667H246.425L249.845 339.667H246.545L245.945 335.497V335.557H242.195L241.595 339.667H238.535L241.955 318.667ZM245.555 332.707L244.085 322.327H244.025L242.585 332.707H245.555ZM255.648 339.967C254.048 339.967 252.838 339.517 252.018 338.617C251.198 337.697 250.788 336.387 250.788 334.687V333.487H253.908V334.927C253.908 336.287 254.478 336.967 255.618 336.967C256.178 336.967 256.598 336.807 256.878 336.487C257.178 336.147 257.328 335.607 257.328 334.867C257.328 333.987 257.128 333.217 256.728 332.557C256.328 331.877 255.588 331.067 254.508 330.127C253.148 328.927 252.198 327.847 251.658 326.887C251.118 325.907 250.848 324.807 250.848 323.587C250.848 321.927 251.268 320.647 252.108 319.747C252.948 318.827 254.168 318.367 255.768 318.367C257.348 318.367 258.538 318.827 259.338 319.747C260.158 320.647 260.568 321.947 260.568 323.647V324.517H257.448V323.437C257.448 322.717 257.308 322.197 257.028 321.877C256.748 321.537 256.338 321.367 255.798 321.367C254.698 321.367 254.148 322.037 254.148 323.377C254.148 324.137 254.348 324.847 254.748 325.507C255.168 326.167 255.918 326.967 256.998 327.907C258.378 329.107 259.328 330.197 259.848 331.177C260.368 332.157 260.628 333.307 260.628 334.627C260.628 336.347 260.198 337.667 259.338 338.587C258.498 339.507 257.268 339.967 255.648 339.967ZM267.325 318.667H271.465L274.675 331.237H274.735V318.667H277.675V339.667H274.285L270.325 324.337H270.265V339.667H267.325V318.667ZM284.898 339.967C283.278 339.967 282.038 339.507 281.178 338.587C280.318 337.667 279.888 336.367 279.888 334.687V323.647C279.888 321.967 280.318 320.667 281.178 319.747C282.038 318.827 283.278 318.367 284.898 318.367C286.518 318.367 287.758 318.827 288.618 319.747C289.478 320.667 289.908 321.967 289.908 323.647V334.687C289.908 336.367 289.478 337.667 288.618 338.587C287.758 339.507 286.518 339.967 284.898 339.967ZM284.898 336.967C286.038 336.967 286.608 336.277 286.608 334.897V323.437C286.608 322.057 286.038 321.367 284.898 321.367C283.758 321.367 283.188 322.057 283.188 323.437V334.897C283.188 336.277 283.758 336.967 284.898 336.967ZM291.211 318.667H294.541L296.701 334.957H296.761L298.921 318.667H301.951L298.771 339.667H294.391L291.211 318.667ZM303.536 318.667H306.836V339.667H303.536V318.667ZM309.308 318.667H314.348C315.988 318.667 317.218 319.107 318.038 319.987C318.858 320.867 319.268 322.157 319.268 323.857V334.477C319.268 336.177 318.858 337.467 318.038 338.347C317.218 339.227 315.988 339.667 314.348 339.667H309.308V318.667ZM314.288 336.667C314.828 336.667 315.238 336.507 315.518 336.187C315.818 335.867 315.968 335.347 315.968 334.627V323.707C315.968 322.987 315.818 322.467 315.518 322.147C315.238 321.827 314.828 321.667 314.288 321.667H312.608V336.667H314.288ZM323.987 318.667H328.457L331.877 339.667H328.577L327.977 335.497V335.557H324.227L323.627 339.667H320.567L323.987 318.667ZM327.587 332.707L326.117 322.327H326.057L324.617 332.707H327.587ZM333.478 318.667H338.518C340.158 318.667 341.388 319.107 342.208 319.987C343.028 320.867 343.438 322.157 343.438 323.857V334.477C343.438 336.177 343.028 337.467 342.208 338.347C341.388 339.227 340.158 339.667 338.518 339.667H333.478V318.667ZM338.458 336.667C338.998 336.667 339.408 336.507 339.688 336.187C339.988 335.867 340.138 335.347 340.138 334.627V323.707C340.138 322.987 339.988 322.467 339.688 322.147C339.408 321.827 338.998 321.667 338.458 321.667H336.778V336.667H338.458ZM345.665 318.667H354.665V321.667H348.965V327.217H353.495V330.217H348.965V336.667H354.665V339.667H345.665V318.667ZM360.912 339.967C359.312 339.967 358.102 339.517 357.282 338.617C356.462 337.697 356.052 336.387 356.052 334.687V333.487H359.172V334.927C359.172 336.287 359.742 336.967 360.882 336.967C361.442 336.967 361.862 336.807 362.142 336.487C362.442 336.147 362.592 335.607 362.592 334.867C362.592 333.987 362.392 333.217 361.992 332.557C361.592 331.877 360.852 331.067 359.772 330.127C358.412 328.927 357.462 327.847 356.922 326.887C356.382 325.907 356.112 324.807 356.112 323.587C356.112 321.927 356.532 320.647 357.372 319.747C358.212 318.827 359.432 318.367 361.032 318.367C362.612 318.367 363.802 318.827 364.602 319.747C365.422 320.647 365.832 321.947 365.832 323.647V324.517H362.712V323.437C362.712 322.717 362.572 322.197 362.292 321.877C362.012 321.537 361.602 321.367 361.062 321.367C359.962 321.367 359.412 322.037 359.412 323.377C359.412 324.137 359.612 324.847 360.012 325.507C360.432 326.167 361.182 326.967 362.262 327.907C363.642 329.107 364.592 330.197 365.112 331.177C365.632 332.157 365.892 333.307 365.892 334.627C365.892 336.347 365.462 337.667 364.602 338.587C363.762 339.507 362.532 339.967 360.912 339.967ZM368.054 327.427V318.667H371.354V327.427L370.934 334.117H368.474L368.054 327.427ZM368.114 336.487H371.294V339.667H368.114V336.487Z" fill="#0660CB"/>
</g>
<g filter="url(#filter1_d_111_9)">
<path d="M50.3811 51.1889C48.7811 51.1889 47.5611 50.7389 46.7211 49.8389C45.8811 48.9189 45.4611 47.6089 45.4611 45.9089V34.8689C45.4611 33.1689 45.8811 31.8689 46.7211 30.9689C47.5611 30.0489 48.7811 29.5889 50.3811 29.5889C51.9811 29.5889 53.2011 30.0489 54.0411 30.9689C54.8811 31.8689 55.3011 33.1689 55.3011 34.8689V36.6689H52.1811V34.6589C52.1811 33.2789 51.6111 32.5889 50.4711 32.5889C49.3311 32.5889 48.7611 33.2789 48.7611 34.6589V46.1489C48.7611 47.5089 49.3311 48.1889 50.4711 48.1889C51.6111 48.1889 52.1811 47.5089 52.1811 46.1489V42.0389H50.5311V39.0389H55.3011V45.9089C55.3011 47.6089 54.8811 48.9189 54.0411 49.8389C53.2011 50.7389 51.9811 51.1889 50.3811 51.1889ZM59.9698 29.8889H64.4398L67.8598 50.8889H64.5598L63.9598 46.7189V46.7789H60.2098L59.6098 50.8889H56.5498L59.9698 29.8889ZM63.5698 43.9289L62.0998 33.5489H62.0398L60.5998 43.9289H63.5698ZM69.4608 29.8889H74.1708L76.2708 44.9189H76.3308L78.4308 29.8889H83.1408V50.8889H80.0208V34.9889H79.9608L77.5608 50.8889H74.8008L72.4008 34.9889H72.3408V50.8889H69.4608V29.8889ZM85.6034 29.8889H94.6034V32.8889H88.9034V38.4389H93.4334V41.4389H88.9034V47.8889H94.6034V50.8889H85.6034V29.8889ZM101.307 29.8889H106.017L108.117 44.9189H108.177L110.277 29.8889H114.987V50.8889H111.867V34.9889H111.807L109.407 50.8889H106.647L104.247 34.9889H104.187V50.8889H101.307V29.8889ZM119.999 29.8889H124.469L127.889 50.8889H124.589L123.989 46.7189V46.7789H120.239L119.639 50.8889H116.579L119.999 29.8889ZM123.599 43.9289L122.129 33.5489H122.069L120.629 43.9289H123.599ZM129.49 29.8889H133.63L136.84 42.4589H136.9V29.8889H139.84V50.8889H136.45L132.49 35.5589H132.43V50.8889H129.49V29.8889ZM142.293 29.8889H145.593V50.8889H142.293V29.8889ZM150.614 29.8889H155.084L158.504 50.8889H155.204L154.604 46.7189V46.7789H150.854L150.254 50.8889H147.194L150.614 29.8889ZM154.214 43.9289L152.744 33.5489H152.684L151.244 43.9289H154.214ZM164.43 38.8889H171.03V41.8889H164.43V38.8889ZM177.801 29.8889H181.101V47.8889H186.531V50.8889H177.801V29.8889ZM192.766 51.1889C191.146 51.1889 189.906 50.7289 189.046 49.8089C188.186 48.8889 187.756 47.5889 187.756 45.9089V34.8689C187.756 33.1889 188.186 31.8889 189.046 30.9689C189.906 30.0489 191.146 29.5889 192.766 29.5889C194.386 29.5889 195.626 30.0489 196.486 30.9689C197.346 31.8889 197.776 33.1889 197.776 34.8689V45.9089C197.776 47.5889 197.346 48.8889 196.486 49.8089C195.626 50.7289 194.386 51.1889 192.766 51.1889ZM192.766 48.1889C193.906 48.1889 194.476 47.4989 194.476 46.1189V34.6589C194.476 33.2789 193.906 32.5889 192.766 32.5889C191.626 32.5889 191.056 33.2789 191.056 34.6589V46.1189C191.056 47.4989 191.626 48.1889 192.766 48.1889ZM200.788 51.0089C200.188 51.0089 199.678 50.9689 199.258 50.8889V47.8889C199.578 47.9689 199.938 48.0089 200.338 48.0089C200.998 48.0089 201.488 47.8489 201.808 47.5289C202.128 47.1889 202.288 46.6789 202.288 45.9989V29.8889H205.588V45.9089C205.588 47.6289 205.188 48.9089 204.388 49.7489C203.608 50.5889 202.408 51.0089 200.788 51.0089ZM210.497 29.8889H214.967L218.387 50.8889H215.087L214.487 46.7189V46.7789H210.737L210.137 50.8889H207.077L210.497 29.8889ZM214.097 43.9289L212.627 33.5489H212.567L211.127 43.9289H214.097ZM224.793 29.8889H229.833C231.473 29.8889 232.703 30.3289 233.523 31.2089C234.343 32.0889 234.753 33.3789 234.753 35.0789V45.6989C234.753 47.3989 234.343 48.6889 233.523 49.5689C232.703 50.4489 231.473 50.8889 229.833 50.8889H224.793V29.8889ZM229.773 47.8889C230.313 47.8889 230.723 47.7289 231.003 47.4089C231.303 47.0889 231.453 46.5689 231.453 45.8489V34.9289C231.453 34.2089 231.303 33.6889 231.003 33.3689C230.723 33.0489 230.313 32.8889 229.773 32.8889H228.093V47.8889H229.773ZM236.98 29.8889H245.98V32.8889H240.28V38.4389H244.81V41.4389H240.28V47.8889H245.98V50.8889H236.98V29.8889ZM253.463 51.0089C252.863 51.0089 252.353 50.9689 251.933 50.8889V47.8889C252.253 47.9689 252.613 48.0089 253.013 48.0089C253.673 48.0089 254.163 47.8489 254.483 47.5289C254.803 47.1889 254.963 46.6789 254.963 45.9989V29.8889H258.263V45.9089C258.263 47.6289 257.863 48.9089 257.063 49.7489C256.283 50.5889 255.083 51.0089 253.463 51.0089ZM265.393 51.1889C263.773 51.1889 262.533 50.7289 261.673 49.8089C260.813 48.8889 260.383 47.5889 260.383 45.9089V34.8689C260.383 33.1889 260.813 31.8889 261.673 30.9689C262.533 30.0489 263.773 29.5889 265.393 29.5889C267.013 29.5889 268.253 30.0489 269.113 30.9689C269.973 31.8889 270.403 33.1889 270.403 34.8689V45.9089C270.403 47.5889 269.973 48.8889 269.113 49.8089C268.253 50.7289 267.013 51.1889 265.393 51.1889ZM265.393 48.1889C266.533 48.1889 267.103 47.4989 267.103 46.1189V34.6589C267.103 33.2789 266.533 32.5889 265.393 32.5889C264.253 32.5889 263.683 33.2789 263.683 34.6589V46.1189C263.683 47.4989 264.253 48.1889 265.393 48.1889ZM277.315 51.1889C275.715 51.1889 274.495 50.7389 273.655 49.8389C272.815 48.9189 272.395 47.6089 272.395 45.9089V34.8689C272.395 33.1689 272.815 31.8689 273.655 30.9689C274.495 30.0489 275.715 29.5889 277.315 29.5889C278.915 29.5889 280.135 30.0489 280.975 30.9689C281.815 31.8689 282.235 33.1689 282.235 34.8689V36.6689H279.115V34.6589C279.115 33.2789 278.545 32.5889 277.405 32.5889C276.265 32.5889 275.695 33.2789 275.695 34.6589V46.1489C275.695 47.5089 276.265 48.1889 277.405 48.1889C278.545 48.1889 279.115 47.5089 279.115 46.1489V42.0389H277.465V39.0389H282.235V45.9089C282.235 47.6089 281.815 48.9189 280.975 49.8389C280.135 50.7389 278.915 51.1889 277.315 51.1889ZM289.123 51.1889C287.503 51.1889 286.263 50.7289 285.403 49.8089C284.543 48.8889 284.113 47.5889 284.113 45.9089V34.8689C284.113 33.1889 284.543 31.8889 285.403 30.9689C286.263 30.0489 287.503 29.5889 289.123 29.5889C290.743 29.5889 291.983 30.0489 292.843 30.9689C293.703 31.8889 294.133 33.1889 294.133 34.8689V45.9089C294.133 47.5889 293.703 48.8889 292.843 49.8089C291.983 50.7289 290.743 51.1889 289.123 51.1889ZM289.123 48.1889C290.263 48.1889 290.833 47.4989 290.833 46.1189V34.6589C290.833 33.2789 290.263 32.5889 289.123 32.5889C287.983 32.5889 287.413 33.2789 287.413 34.6589V46.1189C287.413 47.4989 287.983 48.1889 289.123 48.1889ZM300.655 51.1889C299.055 51.1889 297.845 50.7389 297.025 49.8389C296.205 48.9189 295.795 47.6089 295.795 45.9089V44.7089H298.915V46.1489C298.915 47.5089 299.485 48.1889 300.625 48.1889C301.185 48.1889 301.605 48.0289 301.885 47.7089C302.185 47.3689 302.335 46.8289 302.335 46.0889C302.335 45.2089 302.135 44.4389 301.735 43.7789C301.335 43.0989 300.595 42.2889 299.515 41.3489C298.155 40.1489 297.205 39.0689 296.665 38.1089C296.125 37.1289 295.855 36.0289 295.855 34.8089C295.855 33.1489 296.275 31.8689 297.115 30.9689C297.955 30.0489 299.175 29.5889 300.775 29.5889C302.355 29.5889 303.545 30.0489 304.345 30.9689C305.165 31.8689 305.575 33.1689 305.575 34.8689V35.7389H302.455V34.6589C302.455 33.9389 302.315 33.4189 302.035 33.0989C301.755 32.7589 301.345 32.5889 300.805 32.5889C299.705 32.5889 299.155 33.2589 299.155 34.5989C299.155 35.3589 299.355 36.0689 299.755 36.7289C300.175 37.3889 300.925 38.1889 302.005 39.1289C303.385 40.3289 304.335 41.4189 304.855 42.3989C305.375 43.3789 305.635 44.5289 305.635 45.8489C305.635 47.5689 305.205 48.8889 304.345 49.8089C303.505 50.7289 302.275 51.1889 300.655 51.1889ZM312.332 29.8889H321.332V32.8889H315.632V38.4389H320.162V41.4389H315.632V47.8889H321.332V50.8889H312.332V29.8889ZM323.23 29.8889H326.53V47.8889H331.96V50.8889H323.23V29.8889ZM333.543 29.8889H342.543V32.8889H336.843V38.4389H341.373V41.4389H336.843V47.8889H342.543V50.8889H333.543V29.8889ZM347.021 32.8889H343.571V29.8889H353.771V32.8889H350.321V50.8889H347.021V32.8889ZM355.369 29.8889H360.259C361.959 29.8889 363.199 30.2889 363.979 31.0889C364.759 31.8689 365.149 33.0789 365.149 34.7189V36.0089C365.149 38.1889 364.429 39.5689 362.989 40.1489V40.2089C363.789 40.4489 364.349 40.9389 364.669 41.6789C365.009 42.4189 365.179 43.4089 365.179 44.6489V48.3389C365.179 48.9389 365.199 49.4289 365.239 49.8089C365.279 50.1689 365.379 50.5289 365.539 50.8889H362.179C362.059 50.5489 361.979 50.2289 361.939 49.9289C361.899 49.6289 361.879 49.0889 361.879 48.3089V44.4689C361.879 43.5089 361.719 42.8389 361.399 42.4589C361.099 42.0789 360.569 41.8889 359.809 41.8889H358.669V50.8889H355.369V29.8889ZM359.869 38.8889C360.529 38.8889 361.019 38.7189 361.339 38.3789C361.679 38.0389 361.849 37.4689 361.849 36.6689V35.0489C361.849 34.2889 361.709 33.7389 361.429 33.3989C361.169 33.0589 360.749 32.8889 360.169 32.8889H358.669V38.8889H359.869ZM372.239 51.1889C370.619 51.1889 369.379 50.7289 368.519 49.8089C367.659 48.8889 367.229 47.5889 367.229 45.9089V34.8689C367.229 33.1889 367.659 31.8889 368.519 30.9689C369.379 30.0489 370.619 29.5889 372.239 29.5889C373.859 29.5889 375.099 30.0489 375.959 30.9689C376.819 31.8889 377.249 33.1889 377.249 34.8689V45.9089C377.249 47.5889 376.819 48.8889 375.959 49.8089C375.099 50.7289 373.859 51.1889 372.239 51.1889ZM372.239 48.1889C373.379 48.1889 373.949 47.4989 373.949 46.1189V34.6589C373.949 33.2789 373.379 32.5889 372.239 32.5889C371.099 32.5889 370.529 33.2789 370.529 34.6589V46.1189C370.529 47.4989 371.099 48.1889 372.239 48.1889ZM370.679 25.0289H373.799L376.259 28.4789H373.769L372.239 26.8289L370.709 28.4789H368.219L370.679 25.0289ZM379.48 29.8889H383.62L386.83 42.4589H386.89V29.8889H389.83V50.8889H386.44L382.48 35.5589H382.42V50.8889H379.48V29.8889ZM392.283 29.8889H395.583V50.8889H392.283V29.8889ZM402.705 51.1889C401.125 51.1889 399.915 50.7389 399.075 49.8389C398.255 48.9389 397.845 47.6689 397.845 46.0289V34.7489C397.845 33.1089 398.255 31.8389 399.075 30.9389C399.915 30.0389 401.125 29.5889 402.705 29.5889C404.285 29.5889 405.485 30.0389 406.305 30.9389C407.145 31.8389 407.565 33.1089 407.565 34.7489V36.9689H404.445V34.5389C404.445 33.2389 403.895 32.5889 402.795 32.5889C401.695 32.5889 401.145 33.2389 401.145 34.5389V46.2689C401.145 47.5489 401.695 48.1889 402.795 48.1889C403.895 48.1889 404.445 47.5489 404.445 46.2689V43.0589H407.565V46.0289C407.565 47.6689 407.145 48.9389 406.305 49.8389C405.485 50.7389 404.285 51.1889 402.705 51.1889ZM414.368 51.1889C412.748 51.1889 411.508 50.7289 410.648 49.8089C409.788 48.8889 409.358 47.5889 409.358 45.9089V34.8689C409.358 33.1889 409.788 31.8889 410.648 30.9689C411.508 30.0489 412.748 29.5889 414.368 29.5889C415.988 29.5889 417.228 30.0489 418.088 30.9689C418.948 31.8889 419.378 33.1889 419.378 34.8689V45.9089C419.378 47.5889 418.948 48.8889 418.088 49.8089C417.228 50.7289 415.988 51.1889 414.368 51.1889ZM414.368 48.1889C415.508 48.1889 416.078 47.4989 416.078 46.1189V34.6589C416.078 33.2789 415.508 32.5889 414.368 32.5889C413.228 32.5889 412.658 33.2789 412.658 34.6589V46.1189C412.658 47.4989 413.228 48.1889 414.368 48.1889ZM425.899 51.1889C424.299 51.1889 423.089 50.7389 422.269 49.8389C421.449 48.9189 421.039 47.6089 421.039 45.9089V44.7089H424.159V46.1489C424.159 47.5089 424.729 48.1889 425.869 48.1889C426.429 48.1889 426.849 48.0289 427.129 47.7089C427.429 47.3689 427.579 46.8289 427.579 46.0889C427.579 45.2089 427.379 44.4389 426.979 43.7789C426.579 43.0989 425.839 42.2889 424.759 41.3489C423.399 40.1489 422.449 39.0689 421.909 38.1089C421.369 37.1289 421.099 36.0289 421.099 34.8089C421.099 33.1489 421.519 31.8689 422.359 30.9689C423.199 30.0489 424.419 29.5889 426.019 29.5889C427.599 29.5889 428.789 30.0489 429.589 30.9689C430.409 31.8689 430.819 33.1689 430.819 34.8689V35.7389H427.699V34.6589C427.699 33.9389 427.559 33.4189 427.279 33.0989C426.999 32.7589 426.589 32.5889 426.049 32.5889C424.949 32.5889 424.399 33.2589 424.399 34.5989C424.399 35.3589 424.599 36.0689 424.999 36.7289C425.419 37.3889 426.169 38.1889 427.249 39.1289C428.629 40.3289 429.579 41.4189 430.099 42.3989C430.619 43.3789 430.879 44.5289 430.879 45.8489C430.879 47.5689 430.449 48.8889 429.589 49.8089C428.749 50.7289 427.519 51.1889 425.899 51.1889ZM433.851 50.8889H432.771V47.7089H435.951V50.5589L434.301 54.4889H432.771L433.851 50.8889ZM51.0981 87.1889C49.5181 87.1889 48.3081 86.7389 47.4681 85.8389C46.6481 84.9389 46.2381 83.6689 46.2381 82.0289V70.7489C46.2381 69.1089 46.6481 67.8389 47.4681 66.9389C48.3081 66.0389 49.5181 65.5889 51.0981 65.5889C52.6781 65.5889 53.8781 66.0389 54.6981 66.9389C55.5381 67.8389 55.9581 69.1089 55.9581 70.7489V72.9689H52.8381V70.5389C52.8381 69.2389 52.2881 68.5889 51.1881 68.5889C50.0881 68.5889 49.5381 69.2389 49.5381 70.5389V82.2689C49.5381 83.5489 50.0881 84.1889 51.1881 84.1889C52.2881 84.1889 52.8381 83.5489 52.8381 82.2689V79.0589H55.9581V82.0289C55.9581 83.6689 55.5381 84.9389 54.6981 85.8389C53.8781 86.7389 52.6781 87.1889 51.0981 87.1889ZM62.7611 87.1889C61.1411 87.1889 59.9011 86.7289 59.0411 85.8089C58.1811 84.8889 57.7511 83.5889 57.7511 81.9089V70.8689C57.7511 69.1889 58.1811 67.8889 59.0411 66.9689C59.9011 66.0489 61.1411 65.5889 62.7611 65.5889C64.3811 65.5889 65.6211 66.0489 66.4811 66.9689C67.3411 67.8889 67.7711 69.1889 67.7711 70.8689V81.9089C67.7711 83.5889 67.3411 84.8889 66.4811 85.8089C65.6211 86.7289 64.3811 87.1889 62.7611 87.1889ZM62.7611 84.1889C63.9011 84.1889 64.4711 83.4989 64.4711 82.1189V70.6589C64.4711 69.2789 63.9011 68.5889 62.7611 68.5889C61.6211 68.5889 61.0511 69.2789 61.0511 70.6589V82.1189C61.0511 83.4989 61.6211 84.1889 62.7611 84.1889ZM70.0028 65.8889H74.7128L76.8128 80.9189H76.8728L78.9728 65.8889H83.6828V86.8889H80.5628V70.9889H80.5028L78.1028 86.8889H75.3428L72.9428 70.9889H72.8828V86.8889H70.0028V65.8889ZM86.1454 65.8889H91.0054C92.6454 65.8889 93.8754 66.3289 94.6954 67.2089C95.5154 68.0889 95.9254 69.3789 95.9254 71.0789V73.1489C95.9254 74.8489 95.5154 76.1389 94.6954 77.0189C93.8754 77.8989 92.6454 78.3389 91.0054 78.3389H89.4454V86.8889H86.1454V65.8889ZM91.0054 75.3389C91.5454 75.3389 91.9454 75.1889 92.2054 74.8889C92.4854 74.5889 92.6254 74.0789 92.6254 73.3589V70.8689C92.6254 70.1489 92.4854 69.6389 92.2054 69.3389C91.9454 69.0389 91.5454 68.8889 91.0054 68.8889H89.4454V75.3389H91.0054ZM102.518 87.1889C100.918 87.1889 99.6977 86.7389 98.8577 85.8389C98.0177 84.9189 97.5977 83.6089 97.5977 81.9089V65.8889H100.898V82.1489C100.898 82.8689 101.038 83.3889 101.318 83.7089C101.618 84.0289 102.038 84.1889 102.578 84.1889C103.118 84.1889 103.528 84.0289 103.808 83.7089C104.108 83.3889 104.258 82.8689 104.258 82.1489V65.8889H107.438V81.9089C107.438 83.6089 107.018 84.9189 106.178 85.8389C105.338 86.7389 104.118 87.1889 102.518 87.1889ZM112.368 68.8889H108.918V65.8889H119.118V68.8889H115.668V86.8889H112.368V68.8889ZM121.889 65.8889H126.359L129.779 86.8889H126.479L125.879 82.7189V82.7789H122.129L121.529 86.8889H118.469L121.889 65.8889ZM125.489 79.9289L124.019 69.5489H123.959L122.519 79.9289H125.489ZM131.38 65.8889H136.42C138.06 65.8889 139.29 66.3289 140.11 67.2089C140.93 68.0889 141.34 69.3789 141.34 71.0789V81.6989C141.34 83.3989 140.93 84.6889 140.11 85.5689C139.29 86.4489 138.06 86.8889 136.42 86.8889H131.38V65.8889ZM136.36 83.8889C136.9 83.8889 137.31 83.7289 137.59 83.4089C137.89 83.0889 138.04 82.5689 138.04 81.8489V70.9289C138.04 70.2089 137.89 69.6889 137.59 69.3689C137.31 69.0489 136.9 68.8889 136.36 68.8889H134.68V83.8889H136.36ZM148.337 87.1889C146.717 87.1889 145.477 86.7289 144.617 85.8089C143.757 84.8889 143.327 83.5889 143.327 81.9089V70.8689C143.327 69.1889 143.757 67.8889 144.617 66.9689C145.477 66.0489 146.717 65.5889 148.337 65.5889C149.957 65.5889 151.197 66.0489 152.057 66.9689C152.917 67.8889 153.347 69.1889 153.347 70.8689V81.9089C153.347 83.5889 152.917 84.8889 152.057 85.8089C151.197 86.7289 149.957 87.1889 148.337 87.1889ZM148.337 84.1889C149.477 84.1889 150.047 83.4989 150.047 82.1189V70.6589C150.047 69.2789 149.477 68.5889 148.337 68.5889C147.197 68.5889 146.627 69.2789 146.627 70.6589V82.1189C146.627 83.4989 147.197 84.1889 148.337 84.1889ZM155.579 65.8889H160.469C162.169 65.8889 163.409 66.2889 164.189 67.0889C164.969 67.8689 165.359 69.0789 165.359 70.7189V72.0089C165.359 74.1889 164.639 75.5689 163.199 76.1489V76.2089C163.999 76.4489 164.559 76.9389 164.879 77.6789C165.219 78.4189 165.389 79.4089 165.389 80.6489V84.3389C165.389 84.9389 165.409 85.4289 165.449 85.8089C165.489 86.1689 165.589 86.5289 165.749 86.8889H162.389C162.269 86.5489 162.189 86.2289 162.149 85.9289C162.109 85.6289 162.089 85.0889 162.089 84.3089V80.4689C162.089 79.5089 161.929 78.8389 161.609 78.4589C161.309 78.0789 160.779 77.8889 160.019 77.8889H158.879V86.8889H155.579V65.8889ZM160.079 74.8889C160.739 74.8889 161.229 74.7189 161.549 74.3789C161.889 74.0389 162.059 73.4689 162.059 72.6689V71.0489C162.059 70.2889 161.919 69.7389 161.639 69.3989C161.379 69.0589 160.959 68.8889 160.379 68.8889H158.879V74.8889H160.079ZM167.679 65.8889H176.679V68.8889H170.979V74.4389H175.509V77.4389H170.979V83.8889H176.679V86.8889H167.679V65.8889ZM182.926 87.1889C181.326 87.1889 180.116 86.7389 179.296 85.8389C178.476 84.9189 178.066 83.6089 178.066 81.9089V80.7089H181.186V82.1489C181.186 83.5089 181.756 84.1889 182.896 84.1889C183.456 84.1889 183.876 84.0289 184.156 83.7089C184.456 83.3689 184.606 82.8289 184.606 82.0889C184.606 81.2089 184.406 80.4389 184.006 79.7789C183.606 79.0989 182.866 78.2889 181.786 77.3489C180.426 76.1489 179.476 75.0689 178.936 74.1089C178.396 73.1289 178.126 72.0289 178.126 70.8089C178.126 69.1489 178.546 67.8689 179.386 66.9689C180.226 66.0489 181.446 65.5889 183.046 65.5889C184.626 65.5889 185.816 66.0489 186.616 66.9689C187.436 67.8689 187.846 69.1689 187.846 70.8689V71.7389H184.726V70.6589C184.726 69.9389 184.586 69.4189 184.306 69.0989C184.026 68.7589 183.616 68.5889 183.076 68.5889C181.976 68.5889 181.426 69.2589 181.426 70.5989C181.426 71.3589 181.626 72.0689 182.026 72.7289C182.446 73.3889 183.196 74.1889 184.276 75.1289C185.656 76.3289 186.606 77.4189 187.126 78.3989C187.646 79.3789 187.906 80.5289 187.906 81.8489C187.906 83.5689 187.476 84.8889 186.616 85.8089C185.776 86.7289 184.546 87.1889 182.926 87.1889ZM190.878 86.8889H189.798V83.7089H192.978V86.5589L191.328 90.4889H189.798L190.878 86.8889ZM204.907 87.1889C203.327 87.1889 202.117 86.7389 201.277 85.8389C200.457 84.9389 200.047 83.6689 200.047 82.0289V70.7489C200.047 69.1089 200.457 67.8389 201.277 66.9389C202.117 66.0389 203.327 65.5889 204.907 65.5889C206.487 65.5889 207.687 66.0389 208.507 66.9389C209.347 67.8389 209.767 69.1089 209.767 70.7489V72.9689H206.647V70.5389C206.647 69.2389 206.097 68.5889 204.997 68.5889C203.897 68.5889 203.347 69.2389 203.347 70.5389V82.2689C203.347 83.5489 203.897 84.1889 204.997 84.1889C206.097 84.1889 206.647 83.5489 206.647 82.2689V79.0589H209.767V82.0289C209.767 83.6689 209.347 84.9389 208.507 85.8389C207.687 86.7389 206.487 87.1889 204.907 87.1889ZM211.741 65.8889H220.741V68.8889H215.041V74.4389H219.571V77.4389H215.041V83.8889H220.741V86.8889H211.741V65.8889ZM222.64 65.8889H225.94V83.8889H231.37V86.8889H222.64V65.8889ZM237.752 87.1889C236.152 87.1889 234.932 86.7389 234.092 85.8389C233.252 84.9189 232.832 83.6089 232.832 81.9089V65.8889H236.132V82.1489C236.132 82.8689 236.272 83.3889 236.552 83.7089C236.852 84.0289 237.272 84.1889 237.812 84.1889C238.352 84.1889 238.762 84.0289 239.042 83.7089C239.342 83.3889 239.492 82.8689 239.492 82.1489V65.8889H242.672V81.9089C242.672 83.6089 242.252 84.9189 241.412 85.8389C240.572 86.7389 239.352 87.1889 237.752 87.1889ZM245.022 65.8889H248.322V83.8889H253.752V86.8889H245.022V65.8889ZM258.002 65.8889H262.472L265.892 86.8889H262.592L261.992 82.7189V82.7789H258.242L257.642 86.8889H254.582L258.002 65.8889ZM261.602 79.9289L260.132 69.5489H260.072L258.632 79.9289H261.602ZM267.493 65.8889H272.383C274.083 65.8889 275.323 66.2889 276.103 67.0889C276.883 67.8689 277.273 69.0789 277.273 70.7189V72.0089C277.273 74.1889 276.553 75.5689 275.113 76.1489V76.2089C275.913 76.4489 276.473 76.9389 276.793 77.6789C277.133 78.4189 277.303 79.4089 277.303 80.6489V84.3389C277.303 84.9389 277.323 85.4289 277.363 85.8089C277.403 86.1689 277.503 86.5289 277.663 86.8889H274.303C274.183 86.5489 274.103 86.2289 274.063 85.9289C274.023 85.6289 274.003 85.0889 274.003 84.3089V80.4689C274.003 79.5089 273.843 78.8389 273.523 78.4589C273.223 78.0789 272.693 77.8889 271.933 77.8889H270.793V86.8889H267.493V65.8889ZM271.993 74.8889C272.653 74.8889 273.143 74.7189 273.463 74.3789C273.803 74.0389 273.973 73.4689 273.973 72.6689V71.0489C273.973 70.2889 273.833 69.7389 273.553 69.3989C273.293 69.0589 272.873 68.8889 272.293 68.8889H270.793V74.8889H271.993ZM279.593 65.8889H288.593V68.8889H282.893V74.4389H287.423V77.4389H282.893V83.8889H288.593V86.8889H279.593V65.8889ZM294.84 87.1889C293.24 87.1889 292.03 86.7389 291.21 85.8389C290.39 84.9189 289.98 83.6089 289.98 81.9089V80.7089H293.1V82.1489C293.1 83.5089 293.67 84.1889 294.81 84.1889C295.37 84.1889 295.79 84.0289 296.07 83.7089C296.37 83.3689 296.52 82.8289 296.52 82.0889C296.52 81.2089 296.32 80.4389 295.92 79.7789C295.52 79.0989 294.78 78.2889 293.7 77.3489C292.34 76.1489 291.39 75.0689 290.85 74.1089C290.31 73.1289 290.04 72.0289 290.04 70.8089C290.04 69.1489 290.46 67.8689 291.3 66.9689C292.14 66.0489 293.36 65.5889 294.96 65.5889C296.54 65.5889 297.73 66.0489 298.53 66.9689C299.35 67.8689 299.76 69.1689 299.76 70.8689V71.7389H296.64V70.6589C296.64 69.9389 296.5 69.4189 296.22 69.0989C295.94 68.7589 295.53 68.5889 294.99 68.5889C293.89 68.5889 293.34 69.2589 293.34 70.5989C293.34 71.3589 293.54 72.0689 293.94 72.7289C294.36 73.3889 295.11 74.1889 296.19 75.1289C297.57 76.3289 298.52 77.4189 299.04 78.3989C299.56 79.3789 299.82 80.5289 299.82 81.8489C299.82 83.5689 299.39 84.8889 298.53 85.8089C297.69 86.7289 296.46 87.1889 294.84 87.1889ZM306.516 65.8889H315.516V68.8889H309.816V74.4389H314.346V77.4389H309.816V83.8889H315.516V86.8889H306.516V65.8889ZM324.77 65.8889H329.24L332.66 86.8889H329.36L328.76 82.7189V82.7789H325.01L324.41 86.8889H321.35L324.77 65.8889ZM328.37 79.9289L326.9 69.5489H326.84L325.4 79.9289H328.37ZM338.852 87.1889C337.272 87.1889 336.062 86.7389 335.222 85.8389C334.402 84.9389 333.992 83.6689 333.992 82.0289V70.7489C333.992 69.1089 334.402 67.8389 335.222 66.9389C336.062 66.0389 337.272 65.5889 338.852 65.5889C340.432 65.5889 341.632 66.0389 342.452 66.9389C343.292 67.8389 343.712 69.1089 343.712 70.7489V72.9689H340.592V70.5389C340.592 69.2389 340.042 68.5889 338.942 68.5889C337.842 68.5889 337.292 69.2389 337.292 70.5389V82.2689C337.292 83.5489 337.842 84.1889 338.942 84.1889C340.042 84.1889 340.592 83.5489 340.592 82.2689V79.0589H343.712V82.0289C343.712 83.6689 343.292 84.9389 342.452 85.8389C341.632 86.7389 340.432 87.1889 338.852 87.1889ZM345.686 65.8889H354.686V68.8889H348.986V74.4389H353.516V77.4389H348.986V83.8889H354.686V86.8889H345.686V65.8889ZM360.933 87.1889C359.333 87.1889 358.123 86.7389 357.303 85.8389C356.483 84.9189 356.073 83.6089 356.073 81.9089V80.7089H359.193V82.1489C359.193 83.5089 359.763 84.1889 360.903 84.1889C361.463 84.1889 361.883 84.0289 362.163 83.7089C362.463 83.3689 362.613 82.8289 362.613 82.0889C362.613 81.2089 362.413 80.4389 362.013 79.7789C361.613 79.0989 360.873 78.2889 359.793 77.3489C358.433 76.1489 357.483 75.0689 356.943 74.1089C356.403 73.1289 356.133 72.0289 356.133 70.8089C356.133 69.1489 356.553 67.8689 357.393 66.9689C358.233 66.0489 359.453 65.5889 361.053 65.5889C362.633 65.5889 363.823 66.0489 364.623 66.9689C365.443 67.8689 365.853 69.1689 365.853 70.8689V71.7389H362.733V70.6589C362.733 69.9389 362.593 69.4189 362.313 69.0989C362.033 68.7589 361.623 68.5889 361.083 68.5889C359.983 68.5889 359.433 69.2589 359.433 70.5989C359.433 71.3589 359.633 72.0689 360.033 72.7289C360.453 73.3889 361.203 74.1889 362.283 75.1289C363.663 76.3289 364.613 77.4189 365.133 78.3989C365.653 79.3789 365.913 80.5289 365.913 81.8489C365.913 83.5689 365.483 84.8889 364.623 85.8089C363.783 86.7289 362.553 87.1889 360.933 87.1889ZM372.096 87.1889C370.496 87.1889 369.286 86.7389 368.466 85.8389C367.646 84.9189 367.236 83.6089 367.236 81.9089V80.7089H370.356V82.1489C370.356 83.5089 370.926 84.1889 372.066 84.1889C372.626 84.1889 373.046 84.0289 373.326 83.7089C373.626 83.3689 373.776 82.8289 373.776 82.0889C373.776 81.2089 373.576 80.4389 373.176 79.7789C372.776 79.0989 372.036 78.2889 370.956 77.3489C369.596 76.1489 368.646 75.0689 368.106 74.1089C367.566 73.1289 367.296 72.0289 367.296 70.8089C367.296 69.1489 367.716 67.8689 368.556 66.9689C369.396 66.0489 370.616 65.5889 372.216 65.5889C373.796 65.5889 374.986 66.0489 375.786 66.9689C376.606 67.8689 377.016 69.1689 377.016 70.8689V71.7389H373.896V70.6589C373.896 69.9389 373.756 69.4189 373.476 69.0989C373.196 68.7589 372.786 68.5889 372.246 68.5889C371.146 68.5889 370.596 69.2589 370.596 70.5989C370.596 71.3589 370.796 72.0689 371.196 72.7289C371.616 73.3889 372.366 74.1889 373.446 75.1289C374.826 76.3289 375.776 77.4189 376.296 78.3989C376.816 79.3789 377.076 80.5289 377.076 81.8489C377.076 83.5689 376.646 84.8889 375.786 85.8089C374.946 86.7289 373.716 87.1889 372.096 87.1889ZM383.738 87.1889C382.118 87.1889 380.878 86.7289 380.018 85.8089C379.158 84.8889 378.728 83.5889 378.728 81.9089V70.8689C378.728 69.1889 379.158 67.8889 380.018 66.9689C380.878 66.0489 382.118 65.5889 383.738 65.5889C385.358 65.5889 386.598 66.0489 387.458 66.9689C388.318 67.8889 388.748 69.1889 388.748 70.8689V81.9089C388.748 83.5889 388.318 84.8889 387.458 85.8089C386.598 86.7289 385.358 87.1889 383.738 87.1889ZM383.738 84.1889C384.878 84.1889 385.448 83.4989 385.448 82.1189V70.6589C385.448 69.2789 384.878 68.5889 383.738 68.5889C382.598 68.5889 382.028 69.2789 382.028 70.6589V82.1189C382.028 83.4989 382.598 84.1889 383.738 84.1889ZM384.038 61.0289H387.638L384.428 64.4789H381.938L384.038 61.0289ZM390.979 65.8889H395.869C397.569 65.8889 398.809 66.2889 399.589 67.0889C400.369 67.8689 400.759 69.0789 400.759 70.7189V72.0089C400.759 74.1889 400.039 75.5689 398.599 76.1489V76.2089C399.399 76.4489 399.959 76.9389 400.279 77.6789C400.619 78.4189 400.789 79.4089 400.789 80.6489V84.3389C400.789 84.9389 400.809 85.4289 400.849 85.8089C400.889 86.1689 400.989 86.5289 401.149 86.8889H397.789C397.669 86.5489 397.589 86.2289 397.549 85.9289C397.509 85.6289 397.489 85.0889 397.489 84.3089V80.4689C397.489 79.5089 397.329 78.8389 397.009 78.4589C396.709 78.0789 396.179 77.8889 395.419 77.8889H394.279V86.8889H390.979V65.8889ZM395.479 74.8889C396.139 74.8889 396.629 74.7189 396.949 74.3789C397.289 74.0389 397.459 73.4689 397.459 72.6689V71.0489C397.459 70.2889 397.319 69.7389 397.039 69.3989C396.779 69.0589 396.359 68.8889 395.779 68.8889H394.279V74.8889H395.479ZM403.079 65.8889H406.379V86.8889H403.079V65.8889ZM413.62 87.1889C412 87.1889 410.76 86.7289 409.9 85.8089C409.04 84.8889 408.61 83.5889 408.61 81.9089V70.8689C408.61 69.1889 409.04 67.8889 409.9 66.9689C410.76 66.0489 412 65.5889 413.62 65.5889C415.24 65.5889 416.48 66.0489 417.34 66.9689C418.2 67.8889 418.63 69.1889 418.63 70.8689V81.9089C418.63 83.5889 418.2 84.8889 417.34 85.8089C416.48 86.7289 415.24 87.1889 413.62 87.1889ZM413.62 84.1889C414.76 84.1889 415.33 83.4989 415.33 82.1189V70.6589C415.33 69.2789 414.76 68.5889 413.62 68.5889C412.48 68.5889 411.91 69.2789 411.91 70.6589V82.1189C411.91 83.4989 412.48 84.1889 413.62 84.1889ZM425.152 87.1889C423.552 87.1889 422.342 86.7389 421.522 85.8389C420.702 84.9189 420.292 83.6089 420.292 81.9089V80.7089H423.412V82.1489C423.412 83.5089 423.982 84.1889 425.122 84.1889C425.682 84.1889 426.102 84.0289 426.382 83.7089C426.682 83.3689 426.832 82.8289 426.832 82.0889C426.832 81.2089 426.632 80.4389 426.232 79.7789C425.832 79.0989 425.092 78.2889 424.012 77.3489C422.652 76.1489 421.702 75.0689 421.162 74.1089C420.622 73.1289 420.352 72.0289 420.352 70.8089C420.352 69.1489 420.772 67.8689 421.612 66.9689C422.452 66.0489 423.672 65.5889 425.272 65.5889C426.852 65.5889 428.042 66.0489 428.842 66.9689C429.662 67.8689 430.072 69.1689 430.072 70.8689V71.7389H426.952V70.6589C426.952 69.9389 426.812 69.4189 426.532 69.0989C426.252 68.7589 425.842 68.5889 425.302 68.5889C424.202 68.5889 423.652 69.2589 423.652 70.5989C423.652 71.3589 423.852 72.0689 424.252 72.7289C424.672 73.3889 425.422 74.1889 426.502 75.1289C427.882 76.3289 428.832 77.4189 429.352 78.3989C429.872 79.3789 430.132 80.5289 430.132 81.8489C430.132 83.5689 429.702 84.8889 428.842 85.8089C428.002 86.7289 426.772 87.1889 425.152 87.1889ZM432.024 83.7089H435.204V86.8889H432.024V83.7089ZM46.0819 137.889H55.0819V140.889H49.3819V146.439H53.9119V149.439H49.3819V155.889H55.0819V158.889H46.0819V137.889ZM61.3289 159.189C59.7289 159.189 58.5189 158.739 57.6989 157.839C56.8789 156.919 56.4689 155.609 56.4689 153.909V152.709H59.5889V154.149C59.5889 155.509 60.1589 156.189 61.2989 156.189C61.8589 156.189 62.2789 156.029 62.5589 155.709C62.8589 155.369 63.0089 154.829 63.0089 154.089C63.0089 153.209 62.8089 152.439 62.4089 151.779C62.0089 151.099 61.2689 150.289 60.1889 149.349C58.8289 148.149 57.8789 147.069 57.3389 146.109C56.7989 145.129 56.5289 144.029 56.5289 142.809C56.5289 141.149 56.9489 139.869 57.7889 138.969C58.6289 138.049 59.8489 137.589 61.4489 137.589C63.0289 137.589 64.2189 138.049 65.0189 138.969C65.8389 139.869 66.2489 141.169 66.2489 142.869V143.739H63.1289V142.659C63.1289 141.939 62.9889 141.419 62.7089 141.099C62.4289 140.759 62.0189 140.589 61.4789 140.589C60.3789 140.589 59.8289 141.259 59.8289 142.599C59.8289 143.359 60.0289 144.069 60.4289 144.729C60.8489 145.389 61.5989 146.189 62.6789 147.129C64.0589 148.329 65.0089 149.419 65.5289 150.399C66.0489 151.379 66.3089 152.529 66.3089 153.849C66.3089 155.569 65.8789 156.889 65.0189 157.809C64.1789 158.729 62.9489 159.189 61.3289 159.189ZM70.7811 140.889H67.3311V137.889H77.5311V140.889H74.0811V158.889H70.7811V140.889ZM80.3018 137.889H84.7718L88.1918 158.889H84.8918L84.2918 154.719V154.779H80.5418L79.9418 158.889H76.8818L80.3018 137.889ZM83.9018 151.929L82.4318 141.549H82.3718L80.9318 151.929H83.9018ZM89.7929 137.889H94.5029L96.6029 152.919H96.6629L98.7629 137.889H103.473V158.889H100.353V142.989H100.293L97.8929 158.889H95.1329L92.7329 142.989H92.6729V158.889H89.7929V137.889ZM110.705 159.189C109.085 159.189 107.845 158.729 106.985 157.809C106.125 156.889 105.695 155.589 105.695 153.909V142.869C105.695 141.189 106.125 139.889 106.985 138.969C107.845 138.049 109.085 137.589 110.705 137.589C112.325 137.589 113.565 138.049 114.425 138.969C115.285 139.889 115.715 141.189 115.715 142.869V153.909C115.715 155.589 115.285 156.889 114.425 157.809C113.565 158.729 112.325 159.189 110.705 159.189ZM110.705 156.189C111.845 156.189 112.415 155.499 112.415 154.119V142.659C112.415 141.279 111.845 140.589 110.705 140.589C109.565 140.589 108.995 141.279 108.995 142.659V154.119C108.995 155.499 109.565 156.189 110.705 156.189ZM122.237 159.189C120.637 159.189 119.427 158.739 118.607 157.839C117.787 156.919 117.377 155.609 117.377 153.909V152.709H120.497V154.149C120.497 155.509 121.067 156.189 122.207 156.189C122.767 156.189 123.187 156.029 123.467 155.709C123.767 155.369 123.917 154.829 123.917 154.089C123.917 153.209 123.717 152.439 123.317 151.779C122.917 151.099 122.177 150.289 121.097 149.349C119.737 148.149 118.787 147.069 118.247 146.109C117.707 145.129 117.437 144.029 117.437 142.809C117.437 141.149 117.857 139.869 118.697 138.969C119.537 138.049 120.757 137.589 122.357 137.589C123.937 137.589 125.127 138.049 125.927 138.969C126.747 139.869 127.157 141.169 127.157 142.869V143.739H124.037V142.659C124.037 141.939 123.897 141.419 123.617 141.099C123.337 140.759 122.927 140.589 122.387 140.589C121.287 140.589 120.737 141.259 120.737 142.599C120.737 143.359 120.937 144.069 121.337 144.729C121.757 145.389 122.507 146.189 123.587 147.129C124.967 148.329 125.917 149.419 126.437 150.399C126.957 151.379 127.217 152.529 127.217 153.849C127.217 155.569 126.787 156.889 125.927 157.809C125.087 158.729 123.857 159.189 122.237 159.189ZM133.914 137.889H137.214V155.889H142.644V158.889H133.914V137.889ZM148.879 159.189C147.259 159.189 146.019 158.729 145.159 157.809C144.299 156.889 143.869 155.589 143.869 153.909V142.869C143.869 141.189 144.299 139.889 145.159 138.969C146.019 138.049 147.259 137.589 148.879 137.589C150.499 137.589 151.739 138.049 152.599 138.969C153.459 139.889 153.889 141.189 153.889 142.869V153.909C153.889 155.589 153.459 156.889 152.599 157.809C151.739 158.729 150.499 159.189 148.879 159.189ZM148.879 156.189C150.019 156.189 150.589 155.499 150.589 154.119V142.659C150.589 141.279 150.019 140.589 148.879 140.589C147.739 140.589 147.169 141.279 147.169 142.659V154.119C147.169 155.499 147.739 156.189 148.879 156.189ZM160.771 159.189C159.191 159.189 157.981 158.739 157.141 157.839C156.321 156.939 155.911 155.669 155.911 154.029V142.749C155.911 141.109 156.321 139.839 157.141 138.939C157.981 138.039 159.191 137.589 160.771 137.589C162.351 137.589 163.551 138.039 164.371 138.939C165.211 139.839 165.631 141.109 165.631 142.749V144.969H162.511V142.539C162.511 141.239 161.961 140.589 160.861 140.589C159.761 140.589 159.211 141.239 159.211 142.539V154.269C159.211 155.549 159.761 156.189 160.861 156.189C161.961 156.189 162.511 155.549 162.511 154.269V151.059H165.631V154.029C165.631 155.669 165.211 156.939 164.371 157.839C163.551 158.739 162.351 159.189 160.771 159.189ZM170.155 137.889H174.625L178.045 158.889H174.745L174.145 154.719V154.779H170.395L169.795 158.889H166.735L170.155 137.889ZM173.755 151.929L172.285 141.549H172.225L170.785 151.929H173.755ZM179.646 137.889H182.946V155.889H188.376V158.889H179.646V137.889ZM189.959 137.889H193.259V158.889H189.959V137.889ZM195.07 155.949L201.19 140.889H195.37V137.889H204.73V140.829L198.61 155.889H204.73V158.889H195.07V155.949ZM209.149 137.889H213.619L217.039 158.889H213.739L213.139 154.719V154.779H209.389L208.789 158.889H205.729L209.149 137.889ZM212.749 151.929L211.279 141.549H211.219L209.779 151.929H212.749ZM218.641 137.889H223.681C225.321 137.889 226.551 138.329 227.371 139.209C228.191 140.089 228.601 141.379 228.601 143.079V153.699C228.601 155.399 228.191 156.689 227.371 157.569C226.551 158.449 225.321 158.889 223.681 158.889H218.641V137.889ZM223.621 155.889C224.161 155.889 224.571 155.729 224.851 155.409C225.151 155.089 225.301 154.569 225.301 153.849V142.929C225.301 142.209 225.151 141.689 224.851 141.369C224.571 141.049 224.161 140.889 223.621 140.889H221.941V155.889H223.621ZM235.598 159.189C233.978 159.189 232.738 158.729 231.878 157.809C231.018 156.889 230.588 155.589 230.588 153.909V142.869C230.588 141.189 231.018 139.889 231.878 138.969C232.738 138.049 233.978 137.589 235.598 137.589C237.218 137.589 238.458 138.049 239.318 138.969C240.178 139.889 240.608 141.189 240.608 142.869V153.909C240.608 155.589 240.178 156.889 239.318 157.809C238.458 158.729 237.218 159.189 235.598 159.189ZM235.598 156.189C236.738 156.189 237.308 155.499 237.308 154.119V142.659C237.308 141.279 236.738 140.589 235.598 140.589C234.458 140.589 233.888 141.279 233.888 142.659V154.119C233.888 155.499 234.458 156.189 235.598 156.189ZM247.13 159.189C245.53 159.189 244.32 158.739 243.5 157.839C242.68 156.919 242.27 155.609 242.27 153.909V152.709H245.39V154.149C245.39 155.509 245.96 156.189 247.1 156.189C247.66 156.189 248.08 156.029 248.36 155.709C248.66 155.369 248.81 154.829 248.81 154.089C248.81 153.209 248.61 152.439 248.21 151.779C247.81 151.099 247.07 150.289 245.99 149.349C244.63 148.149 243.68 147.069 243.14 146.109C242.6 145.129 242.33 144.029 242.33 142.809C242.33 141.149 242.75 139.869 243.59 138.969C244.43 138.049 245.65 137.589 247.25 137.589C248.83 137.589 250.02 138.049 250.82 138.969C251.64 139.869 252.05 141.169 252.05 142.869V143.739H248.93V142.659C248.93 141.939 248.79 141.419 248.51 141.099C248.23 140.759 247.82 140.589 247.28 140.589C246.18 140.589 245.63 141.259 245.63 142.599C245.63 143.359 245.83 144.069 246.23 144.729C246.65 145.389 247.4 146.189 248.48 147.129C249.86 148.329 250.81 149.419 251.33 150.399C251.85 151.379 252.11 152.529 252.11 153.849C252.11 155.569 251.68 156.889 250.82 157.809C249.98 158.729 248.75 159.189 247.13 159.189ZM258.807 137.889H262.947L266.157 150.459H266.217V137.889H269.157V158.889H265.767L261.807 143.559H261.747V158.889H258.807V137.889ZM274.159 137.889H278.629L282.049 158.889H278.749L278.149 154.719V154.779H274.399L273.799 158.889H270.739L274.159 137.889ZM277.759 151.929L276.289 141.549H276.229L274.789 151.929H277.759ZM288.455 137.889H293.165L295.265 152.919H295.325L297.425 137.889H302.135V158.889H299.015V142.989H298.955L296.555 158.889H293.795L291.395 142.989H291.335V158.889H288.455V137.889ZM307.148 137.889H311.618L315.038 158.889H311.738L311.138 154.719V154.779H307.388L306.788 158.889H303.728L307.148 137.889ZM310.748 151.929L309.278 141.549H309.218L307.778 151.929H310.748ZM316.639 137.889H321.529C323.229 137.889 324.469 138.289 325.249 139.089C326.029 139.869 326.419 141.079 326.419 142.719V144.009C326.419 146.189 325.699 147.569 324.259 148.149V148.209C325.059 148.449 325.619 148.939 325.939 149.679C326.279 150.419 326.449 151.409 326.449 152.649V156.339C326.449 156.939 326.469 157.429 326.509 157.809C326.549 158.169 326.649 158.529 326.809 158.889H323.449C323.329 158.549 323.249 158.229 323.209 157.929C323.169 157.629 323.149 157.089 323.149 156.309V152.469C323.149 151.509 322.989 150.839 322.669 150.459C322.369 150.079 321.839 149.889 321.079 149.889H319.939V158.889H316.639V137.889ZM321.139 146.889C321.799 146.889 322.289 146.719 322.609 146.379C322.949 146.039 323.119 145.469 323.119 144.669V143.049C323.119 142.289 322.979 141.739 322.699 141.399C322.439 141.059 322.019 140.889 321.439 140.889H319.939V146.889H321.139ZM333.418 159.189C331.818 159.189 330.598 158.739 329.758 157.839C328.918 156.919 328.498 155.609 328.498 153.909V142.869C328.498 141.169 328.918 139.869 329.758 138.969C330.598 138.049 331.818 137.589 333.418 137.589C335.018 137.589 336.238 138.049 337.078 138.969C337.918 139.869 338.338 141.169 338.338 142.869V144.669H335.218V142.659C335.218 141.279 334.648 140.589 333.508 140.589C332.368 140.589 331.798 141.279 331.798 142.659V154.149C331.798 155.509 332.368 156.189 333.508 156.189C334.648 156.189 335.218 155.509 335.218 154.149V150.039H333.568V147.039H338.338V153.909C338.338 155.609 337.918 156.919 337.078 157.839C336.238 158.739 335.018 159.189 333.418 159.189ZM340.457 137.889H343.757V158.889H340.457V137.889ZM346.228 137.889H350.368L353.578 150.459H353.638V137.889H356.578V158.889H353.188L349.228 143.559H349.168V158.889H346.228V137.889ZM361.581 137.889H366.051L369.471 158.889H366.171L365.571 154.719V154.779H361.821L361.221 158.889H358.161L361.581 137.889ZM365.181 151.929L363.711 141.549H363.651L362.211 151.929H365.181ZM371.072 137.889H374.372V155.889H379.802V158.889H371.072V137.889ZM386.189 137.889H389.489V155.889H394.919V158.889H386.189V137.889ZM396.502 137.889H399.802V158.889H396.502V137.889ZM402.273 137.889H406.413L409.623 150.459H409.683V137.889H412.623V158.889H409.233L405.273 143.559H405.213V158.889H402.273V137.889ZM415.076 137.889H424.076V140.889H418.376V146.439H422.906V149.439H418.376V155.889H424.076V158.889H415.076V137.889ZM430.775 159.189C429.175 159.189 427.955 158.739 427.115 157.839C426.275 156.919 425.855 155.609 425.855 153.909V137.889H429.155V154.149C429.155 154.869 429.295 155.389 429.575 155.709C429.875 156.029 430.295 156.189 430.835 156.189C431.375 156.189 431.785 156.029 432.065 155.709C432.365 155.389 432.515 154.869 432.515 154.149V137.889H435.695V153.909C435.695 155.609 435.275 156.919 434.435 157.839C433.595 158.739 432.375 159.189 430.775 159.189ZM65.2432 173.889H69.7132L73.1332 194.889H69.8332L69.2332 190.719V190.779H65.4832L64.8832 194.889H61.8232L65.2432 173.889ZM68.8432 187.929L67.3732 177.549H67.3132L65.8732 187.929H68.8432ZM74.7343 173.889H78.0343V191.889H83.4643V194.889H74.7343V173.889ZM89.5796 195.189C87.9996 195.189 86.7896 194.739 85.9496 193.839C85.1296 192.939 84.7196 191.669 84.7196 190.029V178.749C84.7196 177.109 85.1296 175.839 85.9496 174.939C86.7896 174.039 87.9996 173.589 89.5796 173.589C91.1596 173.589 92.3596 174.039 93.1796 174.939C94.0196 175.839 94.4396 177.109 94.4396 178.749V180.969H91.3196V178.539C91.3196 177.239 90.7696 176.589 89.6696 176.589C88.5696 176.589 88.0196 177.239 88.0196 178.539V190.269C88.0196 191.549 88.5696 192.189 89.6696 192.189C90.7696 192.189 91.3196 191.549 91.3196 190.269V187.059H94.4396V190.029C94.4396 191.669 94.0196 192.939 93.1796 193.839C92.3596 194.739 91.1596 195.189 89.5796 195.189ZM98.9639 173.889H103.434L106.854 194.889H103.554L102.954 190.719V190.779H99.2039L98.6039 194.889H95.5439L98.9639 173.889ZM102.564 187.929L101.094 177.549H101.034L99.5939 187.929H102.564ZM99.6539 169.029H102.774L105.234 172.479H102.744L101.214 170.829L99.6839 172.479H97.1939L99.6539 169.029ZM108.455 173.889H112.595L115.805 186.459H115.865V173.889H118.805V194.889H115.415L111.455 179.559H111.395V194.889H108.455V173.889ZM123.838 176.889H120.388V173.889H130.588V176.889H127.138V194.889H123.838V176.889ZM133.358 173.889H137.828L141.248 194.889H137.948L137.348 190.719V190.779H133.598L132.998 194.889H129.938L133.358 173.889ZM136.958 187.929L135.488 177.549H135.428L133.988 187.929H136.958ZM142.849 173.889H147.739C149.439 173.889 150.679 174.289 151.459 175.089C152.239 175.869 152.629 177.079 152.629 178.719V180.009C152.629 182.189 151.909 183.569 150.469 184.149V184.209C151.269 184.449 151.829 184.939 152.149 185.679C152.489 186.419 152.659 187.409 152.659 188.649V192.339C152.659 192.939 152.679 193.429 152.719 193.809C152.759 194.169 152.859 194.529 153.019 194.889H149.659C149.539 194.549 149.459 194.229 149.419 193.929C149.379 193.629 149.359 193.089 149.359 192.309V188.469C149.359 187.509 149.199 186.839 148.879 186.459C148.579 186.079 148.049 185.889 147.289 185.889H146.149V194.889H142.849V173.889ZM147.349 182.889C148.009 182.889 148.499 182.719 148.819 182.379C149.159 182.039 149.329 181.469 149.329 180.669V179.049C149.329 178.289 149.189 177.739 148.909 177.399C148.649 177.059 148.229 176.889 147.649 176.889H146.149V182.889H147.349ZM157.499 173.889H161.969L165.389 194.889H162.089L161.489 190.719V190.779H157.739L157.139 194.889H154.079L157.499 173.889ZM161.099 187.929L159.629 177.549H159.569L158.129 187.929H161.099ZM176.475 195.189C174.875 195.189 173.655 194.739 172.815 193.839C171.975 192.919 171.555 191.609 171.555 189.909V178.869C171.555 177.169 171.975 175.869 172.815 174.969C173.655 174.049 174.875 173.589 176.475 173.589C178.075 173.589 179.295 174.049 180.135 174.969C180.975 175.869 181.395 177.169 181.395 178.869V180.669H178.275V178.659C178.275 177.279 177.705 176.589 176.565 176.589C175.425 176.589 174.855 177.279 174.855 178.659V190.149C174.855 191.509 175.425 192.189 176.565 192.189C177.705 192.189 178.275 191.509 178.275 190.149V186.039H176.625V183.039H181.395V189.909C181.395 191.609 180.975 192.919 180.135 193.839C179.295 194.739 178.075 195.189 176.475 195.189ZM183.514 173.889H186.814V194.889H183.514V173.889ZM189.285 173.889H192.585V191.889H198.015V194.889H189.285V173.889ZM200.971 194.889H199.891V191.709H203.071V194.559L201.421 198.489H199.891L200.971 194.889ZM214.969 178.869H211.519V176.529C212.459 176.529 213.209 176.449 213.769 176.289C214.349 176.129 214.809 175.869 215.149 175.509C215.489 175.129 215.789 174.589 216.049 173.889H218.269V194.889H214.969V178.869ZM222.301 192.609C222.301 191.109 222.541 189.829 223.021 188.769C223.501 187.689 224.361 186.499 225.601 185.199C226.821 183.899 227.661 182.789 228.121 181.869C228.601 180.949 228.841 179.989 228.841 178.989C228.841 178.089 228.691 177.469 228.391 177.129C228.111 176.769 227.691 176.589 227.131 176.589C225.991 176.589 225.421 177.279 225.421 178.659V180.909H222.301V178.869C222.301 177.169 222.721 175.869 223.561 174.969C224.401 174.049 225.621 173.589 227.221 173.589C228.821 173.589 230.041 174.049 230.881 174.969C231.721 175.869 232.141 177.169 232.141 178.869C232.141 180.149 231.831 181.399 231.211 182.619C230.611 183.839 229.561 185.239 228.061 186.819C227.081 187.859 226.421 188.709 226.081 189.369C225.741 190.009 225.571 190.699 225.571 191.439V191.889H231.841V194.889H222.301V192.609ZM239.023 195.189C237.423 195.189 236.203 194.739 235.363 193.839C234.523 192.919 234.103 191.609 234.103 189.909V189.519H237.223V190.119C237.223 191.499 237.793 192.189 238.933 192.189C239.553 192.189 240.013 191.999 240.313 191.619C240.613 191.239 240.763 190.569 240.763 189.609V185.589H240.703C240.123 186.809 239.123 187.419 237.703 187.419C236.503 187.419 235.593 187.009 234.973 186.189C234.353 185.369 234.043 184.179 234.043 182.619V178.869C234.043 177.189 234.473 175.889 235.333 174.969C236.193 174.049 237.433 173.589 239.053 173.589C240.673 173.589 241.913 174.049 242.773 174.969C243.633 175.889 244.063 177.189 244.063 178.869V189.729C244.063 193.369 242.383 195.189 239.023 195.189ZM239.053 184.419C240.193 184.419 240.763 183.729 240.763 182.349V178.629C240.763 177.269 240.193 176.589 239.053 176.589C237.913 176.589 237.343 177.269 237.343 178.629V182.349C237.343 183.729 237.913 184.419 239.053 184.419ZM251.245 195.189C249.625 195.189 248.385 194.729 247.525 193.809C246.665 192.889 246.235 191.589 246.235 189.909V179.049C246.235 175.409 247.915 173.589 251.275 173.589C252.875 173.589 254.095 174.049 254.935 174.969C255.775 175.869 256.195 177.169 256.195 178.869V179.259H253.075V178.659C253.075 177.279 252.505 176.589 251.365 176.589C250.745 176.589 250.285 176.779 249.985 177.159C249.685 177.539 249.535 178.209 249.535 179.169V183.189H249.595C250.175 181.969 251.175 181.359 252.595 181.359C253.795 181.359 254.705 181.769 255.325 182.589C255.945 183.409 256.255 184.599 256.255 186.159V189.909C256.255 191.589 255.825 192.889 254.965 193.809C254.105 194.729 252.865 195.189 251.245 195.189ZM251.245 192.189C252.385 192.189 252.955 191.509 252.955 190.149V186.429C252.955 185.049 252.385 184.359 251.245 184.359C250.105 184.359 249.535 185.049 249.535 186.429V190.149C249.535 191.509 250.105 192.189 251.245 192.189ZM262.721 182.889H269.321V185.889H262.721V182.889ZM276.872 195.009C276.272 195.009 275.762 194.969 275.342 194.889V191.889C275.662 191.969 276.022 192.009 276.422 192.009C277.082 192.009 277.572 191.849 277.892 191.529C278.212 191.189 278.372 190.679 278.372 189.999V173.889H281.672V189.909C281.672 191.629 281.272 192.909 280.472 193.749C279.692 194.589 278.492 195.009 276.872 195.009ZM286.581 173.889H291.051L294.471 194.889H291.171L290.571 190.719V190.779H286.821L286.221 194.889H283.161L286.581 173.889ZM290.181 187.929L288.711 177.549H288.651L287.211 187.929H290.181ZM296.072 173.889H300.962C302.662 173.889 303.902 174.289 304.682 175.089C305.462 175.869 305.852 177.079 305.852 178.719V180.009C305.852 182.189 305.132 183.569 303.692 184.149V184.209C304.492 184.449 305.052 184.939 305.372 185.679C305.712 186.419 305.882 187.409 305.882 188.649V192.339C305.882 192.939 305.902 193.429 305.942 193.809C305.982 194.169 306.082 194.529 306.242 194.889H302.882C302.762 194.549 302.682 194.229 302.642 193.929C302.602 193.629 302.582 193.089 302.582 192.309V188.469C302.582 187.509 302.422 186.839 302.102 186.459C301.802 186.079 301.272 185.889 300.512 185.889H299.372V194.889H296.072V173.889ZM300.572 182.889C301.232 182.889 301.722 182.719 302.042 182.379C302.382 182.039 302.552 181.469 302.552 180.669V179.049C302.552 178.289 302.412 177.739 302.132 177.399C301.872 177.059 301.452 176.889 300.872 176.889H299.372V182.889H300.572ZM308.172 173.889H313.212C314.852 173.889 316.082 174.329 316.902 175.209C317.722 176.089 318.132 177.379 318.132 179.079V189.699C318.132 191.399 317.722 192.689 316.902 193.569C316.082 194.449 314.852 194.889 313.212 194.889H308.172V173.889ZM313.152 191.889C313.692 191.889 314.102 191.729 314.382 191.409C314.682 191.089 314.832 190.569 314.832 189.849V178.929C314.832 178.209 314.682 177.689 314.382 177.369C314.102 177.049 313.692 176.889 313.152 176.889H311.472V191.889H313.152ZM320.359 173.889H323.659V194.889H320.359V173.889ZM326.131 173.889H330.841L332.941 188.919H333.001L335.101 173.889H339.811V194.889H336.691V178.989H336.631L334.231 194.889H331.471L329.071 178.989H329.011V194.889H326.131V173.889ZM351.368 195.189C349.768 195.189 348.558 194.739 347.738 193.839C346.918 192.919 346.508 191.609 346.508 189.909V188.709H349.628V190.149C349.628 191.509 350.198 192.189 351.338 192.189C351.898 192.189 352.318 192.029 352.598 191.709C352.898 191.369 353.048 190.829 353.048 190.089C353.048 189.209 352.848 188.439 352.448 187.779C352.048 187.099 351.308 186.289 350.228 185.349C348.868 184.149 347.918 183.069 347.378 182.109C346.838 181.129 346.568 180.029 346.568 178.809C346.568 177.149 346.988 175.869 347.828 174.969C348.668 174.049 349.888 173.589 351.488 173.589C353.068 173.589 354.258 174.049 355.058 174.969C355.878 175.869 356.288 177.169 356.288 178.869V179.739H353.168V178.659C353.168 177.939 353.028 177.419 352.748 177.099C352.468 176.759 352.058 176.589 351.518 176.589C350.418 176.589 349.868 177.259 349.868 178.599C349.868 179.359 350.068 180.069 350.468 180.729C350.888 181.389 351.638 182.189 352.718 183.129C354.098 184.329 355.048 185.419 355.568 186.399C356.088 187.379 356.348 188.529 356.348 189.849C356.348 191.569 355.918 192.889 355.058 193.809C354.218 194.729 352.988 195.189 351.368 195.189ZM363.01 195.189C361.39 195.189 360.15 194.729 359.29 193.809C358.43 192.889 358 191.589 358 189.909V178.869C358 177.189 358.43 175.889 359.29 174.969C360.15 174.049 361.39 173.589 363.01 173.589C364.63 173.589 365.87 174.049 366.73 174.969C367.59 175.889 368.02 177.189 368.02 178.869V189.909C368.02 191.589 367.59 192.889 366.73 193.809C365.87 194.729 364.63 195.189 363.01 195.189ZM363.01 192.189C364.15 192.189 364.72 191.499 364.72 190.119V178.659C364.72 177.279 364.15 176.589 363.01 176.589C361.87 176.589 361.3 177.279 361.3 178.659V190.119C361.3 191.499 361.87 192.189 363.01 192.189ZM370.252 173.889H375.142C376.842 173.889 378.082 174.289 378.862 175.089C379.642 175.869 380.032 177.079 380.032 178.719V180.009C380.032 182.189 379.312 183.569 377.872 184.149V184.209C378.672 184.449 379.232 184.939 379.552 185.679C379.892 186.419 380.062 187.409 380.062 188.649V192.339C380.062 192.939 380.082 193.429 380.122 193.809C380.162 194.169 380.262 194.529 380.422 194.889H377.062C376.942 194.549 376.862 194.229 376.822 193.929C376.782 193.629 376.762 193.089 376.762 192.309V188.469C376.762 187.509 376.602 186.839 376.282 186.459C375.982 186.079 375.452 185.889 374.692 185.889H373.552V194.889H370.252V173.889ZM374.752 182.889C375.412 182.889 375.902 182.719 376.222 182.379C376.562 182.039 376.732 181.469 376.732 180.669V179.049C376.732 178.289 376.592 177.739 376.312 177.399C376.052 177.059 375.632 176.889 375.052 176.889H373.552V182.889H374.752ZM384.901 173.889H389.371L392.791 194.889H389.491L388.891 190.719V190.779H385.141L384.541 194.889H381.481L384.901 173.889ZM388.501 187.929L387.031 177.549H386.971L385.531 187.929H388.501ZM396.046 185.949L392.056 173.889H395.566L397.816 181.599H397.876L400.126 173.889H403.336L399.346 185.949V194.889H396.046V185.949ZM405.995 173.889H410.465L413.885 194.889H410.585L409.985 190.719V190.779H406.235L405.635 194.889H402.575L405.995 173.889ZM409.595 187.929L408.125 177.549H408.065L406.625 187.929H409.595ZM416.859 194.889H415.779V191.709H418.959V194.559L417.309 198.489H415.779L416.859 194.889ZM103.006 209.889H112.006V212.889H106.306V218.439H110.836V221.439H106.306V227.889H112.006V230.889H103.006V209.889ZM113.904 209.889H118.614L120.714 224.919H120.774L122.874 209.889H127.584V230.889H124.464V214.989H124.404L122.004 230.889H119.244L116.844 214.989H116.784V230.889H113.904V209.889ZM139.141 231.189C137.541 231.189 136.331 230.739 135.511 229.839C134.691 228.919 134.281 227.609 134.281 225.909V224.709H137.401V226.149C137.401 227.509 137.971 228.189 139.111 228.189C139.671 228.189 140.091 228.029 140.371 227.709C140.671 227.369 140.821 226.829 140.821 226.089C140.821 225.209 140.621 224.439 140.221 223.779C139.821 223.099 139.081 222.289 138.001 221.349C136.641 220.149 135.691 219.069 135.151 218.109C134.611 217.129 134.341 216.029 134.341 214.809C134.341 213.149 134.761 211.869 135.601 210.969C136.441 210.049 137.661 209.589 139.261 209.589C140.841 209.589 142.031 210.049 142.831 210.969C143.651 211.869 144.061 213.169 144.061 214.869V215.739H140.941V214.659C140.941 213.939 140.801 213.419 140.521 213.099C140.241 212.759 139.831 212.589 139.291 212.589C138.191 212.589 137.641 213.259 137.641 214.599C137.641 215.359 137.841 216.069 138.241 216.729C138.661 217.389 139.411 218.189 140.491 219.129C141.871 220.329 142.821 221.419 143.341 222.399C143.861 223.379 144.121 224.529 144.121 225.849C144.121 227.569 143.691 228.889 142.831 229.809C141.991 230.729 140.761 231.189 139.141 231.189ZM148.476 209.889H152.946L156.366 230.889H153.066L152.466 226.719V226.779H148.716L148.116 230.889H145.056L148.476 209.889ZM152.076 223.929L150.606 213.549H150.546L149.106 223.929H152.076ZM146.556 207.639C146.936 206.779 147.346 206.149 147.786 205.749C148.226 205.329 148.726 205.119 149.286 205.119C149.646 205.119 149.956 205.169 150.216 205.269C150.496 205.369 150.786 205.509 151.086 205.689C151.266 205.789 151.436 205.879 151.596 205.959C151.776 206.039 151.946 206.079 152.106 206.079C152.346 206.079 152.556 205.989 152.736 205.809C152.916 205.629 153.106 205.329 153.306 204.909L154.896 205.869C154.516 206.729 154.106 207.369 153.666 207.789C153.226 208.189 152.726 208.389 152.166 208.389C151.806 208.389 151.486 208.339 151.206 208.239C150.946 208.139 150.666 207.999 150.366 207.819C150.186 207.719 150.006 207.629 149.826 207.549C149.666 207.469 149.506 207.429 149.346 207.429C149.106 207.429 148.896 207.519 148.716 207.699C148.536 207.879 148.346 208.179 148.146 208.599L146.556 207.639ZM162.678 231.189C161.058 231.189 159.818 230.729 158.958 229.809C158.098 228.889 157.668 227.589 157.668 225.909V214.869C157.668 213.189 158.098 211.889 158.958 210.969C159.818 210.049 161.058 209.589 162.678 209.589C164.298 209.589 165.538 210.049 166.398 210.969C167.258 211.889 167.688 213.189 167.688 214.869V225.909C167.688 227.589 167.258 228.889 166.398 229.809C165.538 230.729 164.298 231.189 162.678 231.189ZM162.678 228.189C163.818 228.189 164.388 227.499 164.388 226.119V214.659C164.388 213.279 163.818 212.589 162.678 212.589C161.538 212.589 160.968 213.279 160.968 214.659V226.119C160.968 227.499 161.538 228.189 162.678 228.189ZM175.504 231.009C174.904 231.009 174.394 230.969 173.974 230.889V227.889C174.294 227.969 174.654 228.009 175.054 228.009C175.714 228.009 176.204 227.849 176.524 227.529C176.844 227.189 177.004 226.679 177.004 225.999V209.889H180.304V225.909C180.304 227.629 179.904 228.909 179.104 229.749C178.324 230.589 177.124 231.009 175.504 231.009ZM187.434 231.189C185.814 231.189 184.574 230.729 183.714 229.809C182.854 228.889 182.424 227.589 182.424 225.909V214.869C182.424 213.189 182.854 211.889 183.714 210.969C184.574 210.049 185.814 209.589 187.434 209.589C189.054 209.589 190.294 210.049 191.154 210.969C192.014 211.889 192.444 213.189 192.444 214.869V225.909C192.444 227.589 192.014 228.889 191.154 229.809C190.294 230.729 189.054 231.189 187.434 231.189ZM187.434 228.189C188.574 228.189 189.144 227.499 189.144 226.119V214.659C189.144 213.279 188.574 212.589 187.434 212.589C186.294 212.589 185.724 213.279 185.724 214.659V226.119C185.724 227.499 186.294 228.189 187.434 228.189ZM198.966 231.189C197.366 231.189 196.156 230.739 195.336 229.839C194.516 228.919 194.106 227.609 194.106 225.909V224.709H197.226V226.149C197.226 227.509 197.796 228.189 198.936 228.189C199.496 228.189 199.916 228.029 200.196 227.709C200.496 227.369 200.646 226.829 200.646 226.089C200.646 225.209 200.446 224.439 200.046 223.779C199.646 223.099 198.906 222.289 197.826 221.349C196.466 220.149 195.516 219.069 194.976 218.109C194.436 217.129 194.166 216.029 194.166 214.809C194.166 213.149 194.586 211.869 195.426 210.969C196.266 210.049 197.486 209.589 199.086 209.589C200.666 209.589 201.856 210.049 202.656 210.969C203.476 211.869 203.886 213.169 203.886 214.869V215.739H200.766V214.659C200.766 213.939 200.626 213.419 200.346 213.099C200.066 212.759 199.656 212.589 199.116 212.589C198.016 212.589 197.466 213.259 197.466 214.599C197.466 215.359 197.666 216.069 198.066 216.729C198.486 217.389 199.236 218.189 200.316 219.129C201.696 220.329 202.646 221.419 203.166 222.399C203.686 223.379 203.946 224.529 203.946 225.849C203.946 227.569 203.516 228.889 202.656 229.809C201.816 230.729 200.586 231.189 198.966 231.189ZM205.838 209.889H214.838V212.889H209.138V218.439H213.668V221.439H209.138V227.889H214.838V230.889H205.838V209.889ZM210.638 205.029H214.238L211.028 208.479H208.538L210.638 205.029ZM221.541 209.889H226.581C228.221 209.889 229.451 210.329 230.271 211.209C231.091 212.089 231.501 213.379 231.501 215.079V225.699C231.501 227.399 231.091 228.689 230.271 229.569C229.451 230.449 228.221 230.889 226.581 230.889H221.541V209.889ZM226.521 227.889C227.061 227.889 227.471 227.729 227.751 227.409C228.051 227.089 228.201 226.569 228.201 225.849V214.929C228.201 214.209 228.051 213.689 227.751 213.369C227.471 213.049 227.061 212.889 226.521 212.889H224.841V227.889H226.521ZM238.498 231.189C236.878 231.189 235.638 230.729 234.778 229.809C233.918 228.889 233.488 227.589 233.488 225.909V214.869C233.488 213.189 233.918 211.889 234.778 210.969C235.638 210.049 236.878 209.589 238.498 209.589C240.118 209.589 241.358 210.049 242.218 210.969C243.078 211.889 243.508 213.189 243.508 214.869V225.909C243.508 227.589 243.078 228.889 242.218 229.809C241.358 230.729 240.118 231.189 238.498 231.189ZM238.498 228.189C239.638 228.189 240.208 227.499 240.208 226.119V214.659C240.208 213.279 239.638 212.589 238.498 212.589C237.358 212.589 236.788 213.279 236.788 214.659V226.119C236.788 227.499 237.358 228.189 238.498 228.189ZM250.545 209.889H255.435C257.135 209.889 258.375 210.289 259.155 211.089C259.935 211.869 260.325 213.079 260.325 214.719V216.009C260.325 218.189 259.605 219.569 258.165 220.149V220.209C258.965 220.449 259.525 220.939 259.845 221.679C260.185 222.419 260.355 223.409 260.355 224.649V228.339C260.355 228.939 260.375 229.429 260.415 229.809C260.455 230.169 260.555 230.529 260.715 230.889H257.355C257.235 230.549 257.155 230.229 257.115 229.929C257.075 229.629 257.055 229.089 257.055 228.309V224.469C257.055 223.509 256.895 222.839 256.575 222.459C256.275 222.079 255.745 221.889 254.985 221.889H253.845V230.889H250.545V209.889ZM255.045 218.889C255.705 218.889 256.195 218.719 256.515 218.379C256.855 218.039 257.025 217.469 257.025 216.669V215.049C257.025 214.289 256.885 213.739 256.605 213.399C256.345 213.059 255.925 212.889 255.345 212.889H253.845V218.889H255.045ZM262.644 209.889H265.944V230.889H262.644V209.889ZM273.186 231.189C271.566 231.189 270.326 230.729 269.466 229.809C268.606 228.889 268.176 227.589 268.176 225.909V214.869C268.176 213.189 268.606 211.889 269.466 210.969C270.326 210.049 271.566 209.589 273.186 209.589C274.806 209.589 276.046 210.049 276.906 210.969C277.766 211.889 278.196 213.189 278.196 214.869V225.909C278.196 227.589 277.766 228.889 276.906 229.809C276.046 230.729 274.806 231.189 273.186 231.189ZM273.186 228.189C274.326 228.189 274.896 227.499 274.896 226.119V214.659C274.896 213.279 274.326 212.589 273.186 212.589C272.046 212.589 271.476 213.279 271.476 214.659V226.119C271.476 227.499 272.046 228.189 273.186 228.189ZM285.232 209.889H290.092C291.732 209.889 292.962 210.329 293.782 211.209C294.602 212.089 295.012 213.379 295.012 215.079V217.149C295.012 218.849 294.602 220.139 293.782 221.019C292.962 221.899 291.732 222.339 290.092 222.339H288.532V230.889H285.232V209.889ZM290.092 219.339C290.632 219.339 291.032 219.189 291.292 218.889C291.572 218.589 291.712 218.079 291.712 217.359V214.869C291.712 214.149 291.572 213.639 291.292 213.339C291.032 213.039 290.632 212.889 290.092 212.889H288.532V219.339H290.092ZM296.805 209.889H301.695C303.395 209.889 304.635 210.289 305.415 211.089C306.195 211.869 306.585 213.079 306.585 214.719V216.009C306.585 218.189 305.865 219.569 304.425 220.149V220.209C305.225 220.449 305.785 220.939 306.105 221.679C306.445 222.419 306.615 223.409 306.615 224.649V228.339C306.615 228.939 306.635 229.429 306.675 229.809C306.715 230.169 306.815 230.529 306.975 230.889H303.615C303.495 230.549 303.415 230.229 303.375 229.929C303.335 229.629 303.315 229.089 303.315 228.309V224.469C303.315 223.509 303.155 222.839 302.835 222.459C302.535 222.079 302.005 221.889 301.245 221.889H300.105V230.889H296.805V209.889ZM301.305 218.889C301.965 218.889 302.455 218.719 302.775 218.379C303.115 218.039 303.285 217.469 303.285 216.669V215.049C303.285 214.289 303.145 213.739 302.865 213.399C302.605 213.059 302.185 212.889 301.605 212.889H300.105V218.889H301.305ZM308.904 209.889H317.904V212.889H312.204V218.439H316.734V221.439H312.204V227.889H317.904V230.889H308.904V209.889ZM322.383 212.889H318.933V209.889H329.133V212.889H325.683V230.889H322.383V212.889ZM335.383 231.189C333.763 231.189 332.523 230.729 331.663 229.809C330.803 228.889 330.373 227.589 330.373 225.909V214.869C330.373 213.189 330.803 211.889 331.663 210.969C332.523 210.049 333.763 209.589 335.383 209.589C337.003 209.589 338.243 210.049 339.103 210.969C339.963 211.889 340.393 213.189 340.393 214.869V225.909C340.393 227.589 339.963 228.889 339.103 229.809C338.243 230.729 337.003 231.189 335.383 231.189ZM335.383 228.189C336.523 228.189 337.093 227.499 337.093 226.119V214.659C337.093 213.279 336.523 212.589 335.383 212.589C334.243 212.589 333.673 213.279 333.673 214.659V226.119C333.673 227.499 334.243 228.189 335.383 228.189ZM346.95 218.889H353.55V221.889H346.95V218.889ZM359.806 231.189C358.206 231.189 356.996 230.739 356.176 229.839C355.356 228.919 354.946 227.609 354.946 225.909V224.709H358.066V226.149C358.066 227.509 358.636 228.189 359.776 228.189C360.336 228.189 360.756 228.029 361.036 227.709C361.336 227.369 361.486 226.829 361.486 226.089C361.486 225.209 361.286 224.439 360.886 223.779C360.486 223.099 359.746 222.289 358.666 221.349C357.306 220.149 356.356 219.069 355.816 218.109C355.276 217.129 355.006 216.029 355.006 214.809C355.006 213.149 355.426 211.869 356.266 210.969C357.106 210.049 358.326 209.589 359.926 209.589C361.506 209.589 362.696 210.049 363.496 210.969C364.316 211.869 364.726 213.169 364.726 214.869V215.739H361.606V214.659C361.606 213.939 361.466 213.419 361.186 213.099C360.906 212.759 360.496 212.589 359.956 212.589C358.856 212.589 358.306 213.259 358.306 214.599C358.306 215.359 358.506 216.069 358.906 216.729C359.326 217.389 360.076 218.189 361.156 219.129C362.536 220.329 363.486 221.419 364.006 222.399C364.526 223.379 364.786 224.529 364.786 225.849C364.786 227.569 364.356 228.889 363.496 229.809C362.656 230.729 361.426 231.189 359.806 231.189ZM366.678 209.889H371.538C373.178 209.889 374.408 210.329 375.228 211.209C376.048 212.089 376.458 213.379 376.458 215.079V217.149C376.458 218.849 376.048 220.139 375.228 221.019C374.408 221.899 373.178 222.339 371.538 222.339H369.978V230.889H366.678V209.889ZM371.538 219.339C372.078 219.339 372.478 219.189 372.738 218.889C373.018 218.589 373.158 218.079 373.158 217.359V214.869C373.158 214.149 373.018 213.639 372.738 213.339C372.478 213.039 372.078 212.889 371.538 212.889H369.978V219.339H371.538ZM375.467 227.709H378.647V230.889H375.467V227.709Z" fill="white"/>
</g>
<defs>
<filter id="filter0_d_111_9" x="83.4425" y="282.367" width="316.418" height="65.6" filterUnits="userSpaceOnUse" color-interpolation-filters="sRGB">
<feFlood flood-opacity="0" result="BackgroundImageFix"/>
<feColorMatrix in="SourceAlpha" type="matrix" values="0 0 0 0 0 0 0 0 0 0 0 0 0 0 0 0 0 0 127 0" result="hardAlpha"/>
<feOffset dy="4"/>
<feGaussianBlur stdDeviation="2"/>
<feComposite in2="hardAlpha" operator="out"/>
<feColorMatrix type="matrix" values="0 0 0 0 0 0 0 0 0 0 0 0 0 0 0 0 0 0 0.25 0"/>
<feBlend mode="normal" in2="BackgroundImageFix" result="effect1_dropShadow_111_9"/>
<feBlend mode="normal" in="SourceGraphic" in2="effect1_dropShadow_111_9" result="shape"/>
</filter>
<filter id="filter1_d_111_9" x="41.4611" y="25.0289" width="398.49" height="214.16" filterUnits="userSpaceOnUse" color-interpolation-filters="sRGB">
<feFlood flood-opacity="0" result="BackgroundImageFix"/>
<feColorMatrix in="SourceAlpha" type="matrix" values="0 0 0 0 0 0 0 0 0 0 0 0 0 0 0 0 0 0 127 0" result="hardAlpha"/>
<feOffset dy="4"/>
<feGaussianBlur stdDeviation="2"/>
<feComposite in2="hardAlpha" operator="out"/>
<feColorMatrix type="matrix" values="0 0 0 0 0 0 0 0 0 0 0 0 0 0 0 0 0 0 0.25 0"/>
<feBlend mode="normal" in2="BackgroundImageFix" result="effect1_dropShadow_111_9"/>
<feBlend mode="normal" in="SourceGraphic" in2="effect1_dropShadow_111_9" result="shape"/>
</filter>
</defs>
</svg>
